<svg width="16" height="22" viewBox="0 0 16 22" fill="none" xmlns="http://www.w3.org/2000/svg">
<g clip-path="url(#clip0_452_848)">
<path d="M5.63163 13.8467C6.2108 13.8467 6.68032 14.3646 6.68032 15.0035V19.9658C6.68032 20.6047 6.2108 21.1225 5.63163 21.1225C5.05253 21.1225 4.58301 20.6047 4.58301 19.9658V15.0035C4.58301 14.3647 5.05253 13.8468 5.63163 13.8468V13.8467Z" fill="#A4C639"/>
<path d="M3.23744 7.88037C3.23398 7.92424 3.23096 7.96859 3.23096 8.01343V15.5318C3.23096 16.3404 3.81116 16.9917 4.53142 16.9917H11.4626C12.1829 16.9917 12.7631 16.3403 12.7631 15.5318V8.01343C12.7631 7.96859 12.7617 7.92407 12.7583 7.88037H3.23744Z" fill="#A4C639"/>
<path d="M10.3624 13.8469C10.9416 13.8469 11.4111 14.3648 11.4111 15.0037V19.966C11.4111 20.6049 10.9416 21.1227 10.3624 21.1227C9.7833 21.1227 9.31378 20.6049 9.31378 19.966V15.0037C9.31378 14.3649 9.7833 13.847 10.3624 13.847V13.8469ZM1.54576 8.5499C2.12486 8.5499 2.59438 9.06782 2.59438 9.70669V14.669C2.59438 15.3079 2.12486 15.8258 1.54576 15.8258C0.966591 15.8258 0.49707 15.3079 0.49707 14.6691V9.70677C0.496997 9.0679 0.966518 8.5499 1.54576 8.5499ZM14.4479 8.5499C15.027 8.5499 15.4966 9.06782 15.4966 9.70669V14.669C15.4966 15.3079 15.027 15.8258 14.4479 15.8258C13.8688 15.8258 13.3993 15.3079 13.3993 14.6691V9.70677C13.3993 9.0679 13.8688 8.5499 14.4479 8.5499ZM3.26781 7.38693C3.29697 5.07757 5.12424 3.18411 7.46978 2.93457H8.5237C10.8694 3.18419 12.6965 5.07773 12.7257 7.38693H3.26781Z" fill="#A4C639"/>
<path d="M12.3615 2.71143L11.2552 4.82502M3.63281 2.71143L4.73902 4.82502L3.63281 2.71143Z" stroke="#A4C639" stroke-width="2" stroke-linecap="round" stroke-linejoin="round"/>
<path d="M6.588 5.31711C6.58888 5.63992 6.34669 5.90237 6.04698 5.90327C5.74741 5.90408 5.50382 5.64317 5.50293 5.32036V5.31711C5.50212 4.99422 5.74432 4.73185 6.04396 4.73096C6.34352 4.73007 6.58712 4.99089 6.588 5.31386V5.31711ZM10.6378 5.31711C10.6387 5.63992 10.3965 5.90237 10.0968 5.90327C9.79725 5.90408 9.55366 5.64317 9.55277 5.32036V5.31711C9.55196 4.99422 9.79416 4.73185 10.0938 4.73096C10.3934 4.73007 10.637 4.99089 10.6378 5.31386V5.31711Z" fill="white"/>
</g>
<defs>
<clipPath id="clip0_452_848">
<rect width="15" height="21" fill="white" transform="translate(0.474609 0.122559)"/>
</clipPath>
</defs>
</svg>
