<svg
  width="10"
  height="20"
  viewBox="0 0 10 20"
  fill="none"
  xmlns="http://www.w3.org/2000/svg"
>
<path
    d="M9.29988 17.6156L9.01527 18.7008C8.16144 19.0152 7.47939 19.2544 6.97151 19.4189C6.46309 19.5839 5.87232 19.666 5.19923 19.666C4.16558 19.666 3.36158 19.4298 2.78816 18.9607C2.21474 18.4897 1.92794 17.8928 1.92794 17.1688C1.92794 16.8885 1.94876 16.6002 1.99202 16.3064C2.03565 16.0124 2.10503 15.6812 2.19996 15.311L3.26702 11.7881C3.36195 11.4507 3.44264 11.1311 3.50727 10.8289C3.5728 10.5285 3.60439 10.2521 3.60439 10.0033C3.60439 9.55341 3.50453 9.23872 3.30572 9.0618C3.10691 8.88538 2.72755 8.79581 2.16436 8.79581C1.88851 8.79581 1.605 8.83702 1.316 8.91671C1.02573 8.99675 0.777636 9.07406 0.569336 9.14592L0.854676 8.05983C1.5537 7.79436 2.22186 7.56703 2.86101 7.37835C3.50015 7.18916 4.10405 7.09448 4.67528 7.09448C5.70181 7.09448 6.49394 7.3259 7.0502 7.78874C7.60646 8.25192 7.88449 8.85234 7.88449 9.59224C7.88449 9.74532 7.86624 10.0151 7.82699 10.4006C7.78865 10.787 7.71727 11.141 7.61321 11.463L6.55071 14.9717C6.46363 15.2536 6.38532 15.5757 6.31722 15.9383C6.24694 16.2984 6.21334 16.5736 6.21334 16.7582C6.21334 17.2241 6.32471 17.5422 6.54798 17.7113C6.77289 17.8804 7.16028 17.9645 7.71051 17.9645C7.96884 17.9645 8.26276 17.9218 8.58936 17.8378C8.91504 17.7539 9.15255 17.6801 9.29988 17.6156ZM9.56934 2.88484C9.56934 3.49617 9.32233 4.01827 8.82595 4.44756C8.33085 4.87838 7.73425 5.09396 7.03632 5.09396C6.33621 5.09396 5.73814 4.87838 5.23738 4.44756C4.73753 4.0181 4.48706 3.49617 4.48706 2.88484C4.48706 2.27471 4.73753 1.75176 5.23738 1.31702C5.73723 0.88296 6.33639 0.666016 7.03632 0.666016C7.73407 0.666016 8.33085 0.883471 8.82595 1.31702C9.3227 1.75176 9.56934 2.27488 9.56934 2.88484Z"
    fill="#fff"
  />
</svg>
