<svg width="334" height="332" viewBox="0 0 334 332" fill="none" xmlns="http://www.w3.org/2000/svg">
<rect x="0.0913086" width="333" height="332" rx="166" fill="#345E9D"/>
<mask id="mask0_212_146" style="mask-type:alpha" maskUnits="userSpaceOnUse" x="148" y="97" width="137" height="137">
<path d="M168.789 213.342C195.239 239.793 238.124 239.793 264.574 213.342C291.025 186.892 291.025 144.008 264.574 117.557C238.124 91.1068 195.239 91.1068 168.789 117.557C142.339 144.008 142.339 186.892 168.789 213.342Z" fill="#C4C4C4"/>
</mask>
<g mask="url(#mask0_212_146)">
</g>
<g clip-path="url(#clip0_212_146)">
<rect x="151" y="96" width="136" height="136" rx="68" fill="white"/>
<path d="M151.755 89.8976L178.712 90.0681L223.514 137.672L286.524 138.072L286.513 185.392L223.503 184.994L178.677 232.03L151.721 231.859L151.755 89.8976Z" fill="white"/>
<path d="M151.755 89.898L168.328 90.0069L222.653 146.989L288.43 147.421L288.428 176.132L222.651 175.701L168.318 231.969L151.746 231.86L151.755 89.898Z" fill="#007847"/>
<path d="M151.79 107.23L203.099 161.334L151.763 214.789L151.79 107.23Z" fill="#FFB915"/>
<path d="M151.809 118.428L192.317 161.283L151.788 203.624L151.809 118.428Z" fill="black"/>
<path d="M224.609 137.634L178.671 89.6494L286.672 89.9899L286.56 137.829L224.609 137.634Z" fill="#BF0A30"/>
<path d="M224.371 184.67L178.209 232.364L286.21 232.704L286.322 184.866L224.371 184.67Z" fill="#003399"/>
</g>
<rect x="41" y="96" width="136" height="136" rx="68" fill="#2664E0"/>
<path d="M141.783 131.261L139.782 135.289L142.822 138.329L138.446 137.638L136.611 141.499L135.921 137.123L131.545 136.432L135.406 134.598L134.715 130.221L137.755 133.262L141.783 131.261ZM123.574 120.757L121.572 124.785L124.613 127.825L120.404 126.966L118.403 130.995L117.711 126.619L113.335 125.928L117.364 123.926L116.506 119.717L119.546 122.758L123.574 120.757ZM102.55 120.837L100.547 124.528L103.756 127.738L99.3793 127.047L97.5459 130.908L96.8543 126.532L92.478 125.841L96.3391 124.007L95.6487 119.63L98.6889 122.671L102.55 120.837ZM152.288 149.47L150.286 153.499L153.326 156.539L148.95 155.847L147.116 159.708L146.425 155.332L142.049 154.642L145.91 152.807L145.219 148.431L148.259 151.471L152.288 149.47ZM153.074 176.721L149.034 176.032L146.863 179.891L146.342 175.684L141.965 174.992L145.658 172.99L145.135 168.783L148.175 171.823L152.203 169.821L150.034 173.681L153.074 176.721ZM142.89 195.012L138.514 194.322L136.511 198.35L135.821 193.974L131.612 193.115L135.473 191.281L134.783 186.905L137.823 189.945L141.684 188.111L139.85 191.972L142.89 195.012ZM119.061 208.37L118.37 203.993L113.994 203.302L117.855 201.468L117.164 197.092L120.204 200.132L124.233 198.13L122.231 202.159L125.271 205.199L120.895 204.509L119.061 208.37ZM75.2668 193.386L78.9588 191.382L78.4368 187.175L81.477 190.215L85.3365 188.044L83.3349 192.073L86.3746 195.113L82.3355 194.424L80.165 198.284L79.6429 194.076L75.2668 193.386ZM64.7627 175.176L68.4547 173.173L67.9325 168.966L70.9727 172.006L74.6649 170.004L72.8308 173.863L75.871 176.904L71.4949 176.213L69.6608 180.074L68.8023 175.866L64.7627 175.176ZM97.8681 208.281L97.3452 204.074L92.969 203.382L96.9975 201.381L96.1396 197.173L99.1798 200.213L103.208 198.211L101.037 202.071L104.246 205.28L100.038 204.422L97.8681 208.281ZM77.8636 130.321L80.9038 133.361L84.9322 131.36L82.9306 135.389L85.9706 138.429L81.5949 137.737L79.7608 141.598L79.0697 137.222L74.6936 136.532L78.5546 134.697L77.8636 130.321ZM64.6743 153.983L68.7028 151.981L67.8443 147.772L71.0534 150.981L74.913 148.812L72.9113 152.839L75.9517 155.879L71.743 155.021L69.7414 159.05L69.0504 154.673L64.6743 153.983Z" fill="#FFCC00"/>
<defs>
<clipPath id="clip0_212_146">
<rect x="151" y="96" width="136" height="136" rx="68" fill="white"/>
</clipPath>
</defs>
</svg>
