<svg width="336" height="335" viewBox="0 0 336 335" fill="none" xmlns="http://www.w3.org/2000/svg">
<rect y="0.557129" width="336" height="334" rx="167" fill="white"/>
<path d="M130.936 189.313L258.041 190.776C258.906 187.565 259.337 184.134 259.552 180.915L129.415 179.417C129.633 182.641 130.068 186.082 130.936 189.313V189.313ZM139.391 209.382L249.606 210.651C251.554 207.452 253.501 204.253 254.798 200.832L134.189 199.444C135.707 202.897 137.44 206.138 139.391 209.382ZM159.755 229.588L229.479 230.391C234.025 227.652 238.137 224.263 241.816 220.655L147.408 219.568C151.091 223.261 155.206 226.529 159.755 229.588ZM229.206 120.65L159.699 119.85C155.153 122.589 151.041 125.978 147.362 129.587L241.554 130.671C237.871 126.763 233.755 123.495 229.206 120.65Z" fill="white"/>
<path d="M134.189 199.229L255.015 200.62C256.312 197.414 257.393 194.205 258.258 190.779L130.936 189.313C131.804 192.759 132.888 195.993 134.189 199.229ZM147.408 219.353L241.6 220.437C244.63 217.466 247.226 214.06 249.607 210.651L139.391 209.382C141.775 212.845 144.375 216.311 147.408 219.353ZM194.622 239.868C207.398 240.015 219.305 236.502 229.479 230.391L159.755 229.588C169.719 235.931 181.63 239.719 194.622 239.868V239.868ZM130.921 159.247L258.026 160.711C257.158 157.265 256.074 153.817 254.773 150.795L134.164 149.406C132.866 152.613 131.785 155.821 130.921 159.247V159.247ZM129.196 174.26C129.197 175.978 129.198 177.696 129.415 179.202L259.768 180.703C259.984 178.987 259.983 177.484 259.982 175.766C259.981 174.048 259.981 172.33 259.763 170.824L129.41 169.323C129.194 171.039 129.195 172.542 129.196 174.26ZM147.362 129.586C144.332 132.558 141.735 135.964 139.355 139.373L249.571 140.642C247.187 136.964 244.587 133.712 241.554 130.671L147.362 129.586ZM194.556 110.158C181.781 110.011 169.873 113.525 159.699 119.635L229.423 120.438C219.243 114.093 207.332 110.305 194.556 110.158Z" fill="#BF0A30"/>
<path d="M129.41 169.324L259.763 170.825C259.545 167.386 258.894 164.158 258.242 160.929L130.921 159.463C130.056 162.674 129.625 165.89 129.41 169.324V169.324ZM134.164 149.407L254.989 150.798C253.472 147.345 251.738 143.889 249.787 140.86L139.355 139.588C137.408 142.572 135.678 145.988 134.164 149.407V149.407Z" fill="white"/>
<path d="M194.339 110.156C158.178 109.74 128.961 138.395 128.979 174.258C128.98 175.976 128.981 177.694 129.199 179.415L194.375 180.165L194.339 110.156Z" fill="#002868"/>
<path d="M133.082 151.971C133.082 152.186 132.866 152.398 132.866 152.613L133.082 151.971ZM132.434 154.111C132.217 154.753 132.001 155.395 131.785 156.252L132.434 154.111ZM135.476 175.622L133.527 174.311L131.579 175.577L132.444 173.439L130.494 171.913L132.876 171.941L133.524 169.801L134.392 171.958L136.773 171.986L134.825 173.467L135.476 175.622ZM144.349 166.06L142.399 164.534L140.451 166.015L141.1 163.66L139.15 162.349L141.532 162.377L142.397 160.239L143.048 162.394L145.43 162.422L143.482 163.688L144.349 166.06ZM143.688 143.933L144.556 146.305L142.606 144.78L140.658 146.26L141.306 143.906L139.357 142.595L141.739 142.622L142.604 140.485L143.254 142.64L145.636 142.667L143.688 143.933ZM153.448 175.829L151.499 174.518L149.551 175.784L150.199 173.644L148.25 172.118L150.848 172.148L151.497 170.008L152.147 172.163L154.529 172.19L152.581 173.671L153.448 175.829ZM153.437 153.709L152.571 154.343L153.439 156.501L151.489 155.19L149.541 156.456L150.189 154.316L149.323 153.662L148.24 152.79L150.838 152.82L151.487 150.68L152.137 152.835L154.519 152.863L153.437 153.709ZM152.561 134.157L153.428 136.314L151.479 135.003L149.531 136.269L150.179 134.129L148.23 132.604L150.828 132.633L151.476 130.493L152.127 132.648L154.509 132.676L152.561 134.157ZM162.105 166.909L160.156 165.598L158.208 166.864L159.073 164.726L157.123 163.201L159.505 163.228L160.153 161.088L161.021 163.245L163.402 163.273L161.454 164.754L162.105 166.909ZM161.661 144.999L162.312 147.154L160.362 145.843L158.414 147.109L159.279 144.972L157.329 143.446L159.711 143.473L160.36 141.333L161.227 143.491L163.609 143.518L161.661 144.999ZM161.867 125.03L162.518 127.185L160.568 125.874L158.62 127.14L159.269 125L157.536 123.476L159.918 123.504L160.566 121.364L161.217 123.519L163.599 123.546L161.867 125.03ZM171.204 176.033L169.255 174.722L167.523 175.991L168.172 173.851L166.222 172.325L168.604 172.352L169.252 170.212L170.12 172.37L172.501 172.397L170.553 173.878L171.204 176.033ZM171.409 153.916L170.544 154.55L171.194 156.705L169.245 155.394L167.513 156.663L168.162 154.523L167.295 153.869L166.212 152.997L168.594 153.025L169.243 150.885L170.11 153.042L172.492 153.069L171.409 153.916ZM170.533 134.364L171.184 136.519L169.235 135.208L167.503 136.476L168.151 134.336L166.202 132.81L168.584 132.838L169.232 130.698L170.099 132.855L172.481 132.883L170.533 134.364ZM180.077 167.116L178.128 165.805L176.18 167.071L176.828 164.931L174.879 163.405L177.477 163.435L178.126 161.295L178.776 163.45L181.158 163.477L179.21 164.958L180.077 167.116ZM179.417 145.203L180.284 147.361L178.334 146.05L176.386 147.316L177.035 145.176L175.085 143.65L177.467 143.678L178.332 141.54L178.983 143.695L181.365 143.723L179.417 145.203ZM179.623 125.234L180.49 127.391L178.541 126.081L176.593 127.347L177.241 125.207L175.292 123.681L177.673 123.708L178.538 121.571L179.189 123.726L181.571 123.753L179.623 125.234ZM189.176 176.24L187.227 174.929L185.279 176.195L186.144 174.058L184.194 172.532L186.576 172.559L187.225 170.419L187.875 172.574L190.257 172.602L188.526 174.085L189.176 176.24ZM189.382 154.123L188.516 154.757L189.167 156.912L187.217 155.601L185.269 156.867L186.134 154.73L185.268 154.076L184.184 153.204L186.566 153.232L187.215 151.092L187.865 153.247L190.247 153.274L189.382 154.123ZM188.506 134.571L189.156 136.726L187.207 135.415L185.259 136.681L186.124 134.543L184.174 133.017L186.556 133.045L187.205 130.905L187.855 133.06L190.237 133.087L188.506 134.571ZM188.495 114.813L189.146 116.968L187.197 115.657L185.249 116.924L186.114 114.786L184.164 113.26L186.546 113.288L187.194 111.148L187.845 113.303L190.227 113.33L188.495 114.813ZM169.224 115.45L171.174 116.761L170.523 114.606L170.74 114.394C169.657 114.811 168.791 115.231 167.709 115.648L167.276 116.931L169.224 115.45Z" fill="white"/>
<path d="M169.232 130.698L168.584 132.838L166.202 132.81L168.151 134.336L167.503 136.476L169.235 135.208L171.184 136.518L170.533 134.363L172.481 132.883L170.1 132.855L169.232 130.698ZM169.243 150.884L168.594 153.024L166.212 152.997L167.295 153.869L168.162 154.523L167.513 156.663L169.245 155.394L171.194 156.705L170.544 154.55L171.409 153.916L172.492 153.069L170.11 153.042L169.243 150.884ZM170.12 172.37L169.252 170.212L168.604 172.352L166.222 172.325L168.172 173.85L167.523 175.99L169.255 174.722L171.204 176.033L170.554 173.878L172.502 172.397L170.12 172.37ZM151.477 130.493L150.828 132.633L148.23 132.603L150.179 134.129L149.531 136.269L151.479 135.003L153.428 136.314L152.561 134.157L154.509 132.676L152.127 132.648L151.477 130.493ZM151.487 150.68L150.838 152.82L148.24 152.79L149.323 153.662L150.189 154.316L149.541 156.456L151.489 155.19L153.439 156.501L152.571 154.343L153.437 153.709L154.519 152.862L152.138 152.835L151.487 150.68ZM152.147 172.163L151.497 170.008L150.848 172.148L148.25 172.118L150.199 173.643L149.551 175.784L151.499 174.517L153.448 175.828L152.581 173.671L154.529 172.19L152.147 172.163ZM131.569 156.249C131.785 156.251 131.785 156.251 131.569 156.249V156.249ZM133.515 150.473L133.082 151.971C133.299 151.544 133.515 151.117 133.515 150.473Z" fill="white"/>
<path d="M135.466 156.294L134.815 153.924L135.681 153.29L136.763 152.443L134.382 152.416L133.731 150.261L133.082 151.542L132.866 152.184C132.649 152.611 132.65 153.04 132.433 153.467L131.785 155.607L131.785 155.822L133.733 154.556L135.466 156.294V156.294ZM134.392 171.958L133.524 169.801L132.876 171.941L130.494 171.913L132.444 173.439L131.579 175.577L133.527 174.311L135.476 175.622L134.825 173.467L136.773 171.986L134.392 171.958ZM178.332 141.54L177.467 143.678L175.085 143.65L177.035 145.176L176.386 147.316L178.334 146.05L180.284 147.361L179.417 145.203L181.365 143.723L178.983 143.695L178.332 141.54ZM178.776 163.45L178.126 161.295L177.477 163.435L174.879 163.405L176.828 164.931L176.18 167.071L178.128 165.805L180.077 167.116L179.21 164.958L181.158 163.477L178.776 163.45ZM160.36 141.333L159.711 143.473L157.329 143.446L159.279 144.972L158.414 147.109L160.362 145.843L162.312 147.154L161.661 144.999L163.609 143.518L161.227 143.491L160.36 141.333ZM161.021 163.245L160.153 161.088L159.505 163.228L157.123 163.201L159.073 164.726L158.208 166.864L160.156 165.598L162.105 166.909L161.454 164.754L163.402 163.273L161.021 163.245ZM142.604 140.485L141.739 142.622L139.357 142.595L141.306 143.906L140.658 146.26L142.606 144.78L144.556 146.305L143.688 143.933L145.636 142.667L143.254 142.64L142.604 140.485ZM143.048 162.394L142.397 160.239L141.532 162.377L139.15 162.349L141.1 163.66L140.451 166.015L142.399 164.534L144.349 166.06L143.482 163.688L145.43 162.422L143.048 162.394ZM187.205 130.905L186.556 133.045L184.174 133.017L186.124 134.543L185.259 136.681L187.207 135.415L189.156 136.726L188.506 134.571L190.237 133.087L187.855 133.06L187.205 130.905ZM160.566 121.364L159.918 123.504L157.536 123.476L159.269 125L158.62 127.14L160.568 125.874L162.518 127.185L161.867 125.03L163.599 123.546L161.217 123.519L160.566 121.364ZM178.538 121.571L177.673 123.708L175.292 123.681L177.241 125.207L176.593 127.347L178.541 126.081L180.49 127.391L179.623 125.234L181.571 123.753L179.189 123.726L178.538 121.571ZM187.194 111.148L186.546 113.288L184.164 113.26L186.114 114.786L185.249 116.924L187.197 115.657L189.146 116.968L188.495 114.813L190.227 113.33L187.845 113.303L187.194 111.148ZM187.215 151.092L186.566 153.232L184.184 153.204L185.268 154.076L186.134 154.73L185.269 156.867L187.217 155.601L189.167 156.912L188.516 154.757L189.382 154.123L190.247 153.274L187.865 153.247L187.215 151.092ZM187.875 172.574L187.225 170.419L186.576 172.559L184.194 172.532L186.144 174.058L185.279 176.195L187.227 174.929L189.176 176.24L188.526 174.085L190.257 172.602L187.875 172.574Z" fill="white"/>
<path d="M145.332 200.397C166.333 179.799 166.315 146.012 145.292 124.931C124.269 103.85 90.2015 103.459 69.2004 124.056C48.1993 144.654 48.2172 178.441 69.2403 199.522C90.2634 220.603 124.331 220.994 145.332 200.397Z" fill="#003399"/>
<path d="M107.262 126.64L108.385 129.988L111.748 130.027L108.947 132.033L110.069 135.196L107.266 133.125L104.464 135.131L105.584 131.994L102.78 129.924L106.143 129.963L107.262 126.64ZM91.3848 130.719L92.5074 134.067L95.8702 134.106L93.0688 135.926L94.1914 139.274L91.3881 137.204L88.5868 139.21L89.706 135.888L86.9027 134.003L90.2655 134.041L91.3848 130.719ZM79.8077 142.259L80.7434 145.419L84.2931 145.46L81.4918 147.466L82.6143 150.629L79.8109 148.558L77.0096 150.564L78.129 147.427L75.3256 145.357L78.6884 145.396L79.8077 142.259ZM123.145 131.085L124.267 134.433L127.63 134.472L124.829 136.477L125.951 139.64L123.148 137.57L120.347 139.576L121.466 136.439L118.663 134.368L122.025 134.407L123.145 131.085ZM138.658 145.901L136.044 147.724L136.98 151.069L134.363 149.001L131.562 151.007L132.494 147.868L129.878 145.8L133.24 145.838L134.36 142.516L135.295 145.862L138.658 145.901ZM143.15 161.702L140.349 163.708L141.471 167.056L138.668 164.985L135.867 166.806L136.986 163.669L134.183 161.598L137.545 161.637L138.665 158.5L139.787 161.663L143.15 161.702ZM137.369 182.202L134.566 180.131L131.764 182.137L132.884 179L130.08 176.93L133.443 176.969L134.562 173.646L135.685 176.994L139.048 177.033L136.247 179.039L137.369 182.202ZM104.87 197.762L105.803 194.623L103.186 192.555L106.549 192.593L107.481 189.269L108.604 192.617L111.967 192.656L109.352 194.478L110.288 197.824L107.671 195.756L104.87 197.762ZM88.988 193.317L89.9205 190.178L87.304 188.11L90.6668 188.149L91.5993 185.01L92.7218 188.173L96.0846 188.211L93.2833 190.217L94.4059 193.38L91.6026 191.495L88.988 193.317ZM125.605 193.739L122.989 191.671L120.187 193.677L121.307 190.355L118.503 188.469L121.866 188.508L122.985 185.186L123.921 188.532L127.471 188.573L124.669 190.393L125.605 193.739ZM71.4104 161.061L74.7732 161.1L75.8924 157.777L77.015 161.125L80.3778 161.164L77.5765 163.17L78.6991 166.333L75.8957 164.262L73.0944 166.268L74.2137 163.131L71.4104 161.061ZM77.2123 181.509L78.3315 178.187L75.5282 176.302L79.0778 176.343L80.0102 173.018L81.1329 176.366L84.4957 176.405L81.6943 178.225L82.8169 181.574L80.0135 179.503L77.2123 181.509Z" fill="#FFCC00"/>
<path d="M145.332 200.397C166.333 179.799 166.315 146.012 145.292 124.931C124.269 103.85 90.2015 103.459 69.2004 124.056C48.1993 144.654 48.2172 178.441 69.2403 199.522C90.2634 220.603 124.331 220.994 145.332 200.397Z" fill="#003399"/>
<path d="M107.262 126.64L108.385 129.988L111.748 130.027L108.947 132.033L110.069 135.196L107.266 133.125L104.464 135.131L105.584 131.994L102.78 129.924L106.143 129.963L107.262 126.64ZM91.3848 130.719L92.5074 134.067L95.8702 134.106L93.0688 135.926L94.1914 139.274L91.3881 137.204L88.5868 139.21L89.706 135.888L86.9027 134.003L90.2655 134.041L91.3848 130.719ZM79.8077 142.259L80.7434 145.419L84.2931 145.46L81.4918 147.466L82.6143 150.629L79.8109 148.558L77.0096 150.564L78.129 147.427L75.3256 145.357L78.6884 145.396L79.8077 142.259ZM123.145 131.085L124.267 134.433L127.63 134.472L124.829 136.477L125.951 139.64L123.148 137.57L120.347 139.576L121.466 136.439L118.663 134.368L122.025 134.407L123.145 131.085ZM138.658 145.901L136.044 147.724L136.98 151.069L134.363 149.001L131.562 151.007L132.494 147.868L129.878 145.8L133.24 145.838L134.36 142.516L135.295 145.862L138.658 145.901ZM143.15 161.702L140.349 163.708L141.471 167.056L138.668 164.985L135.867 166.806L136.986 163.669L134.183 161.598L137.545 161.637L138.665 158.5L139.787 161.663L143.15 161.702ZM137.369 182.202L134.566 180.131L131.764 182.137L132.884 179L130.08 176.93L133.443 176.969L134.562 173.646L135.685 176.994L139.048 177.033L136.247 179.039L137.369 182.202ZM104.87 197.762L105.803 194.623L103.186 192.555L106.549 192.593L107.481 189.269L108.604 192.617L111.967 192.656L109.352 194.478L110.288 197.824L107.671 195.756L104.87 197.762ZM88.988 193.317L89.9205 190.178L87.304 188.11L90.6668 188.149L91.5993 185.01L92.7218 188.173L96.0846 188.211L93.2833 190.217L94.4059 193.38L91.6026 191.495L88.988 193.317ZM125.605 193.739L122.989 191.671L120.187 193.677L121.307 190.355L118.503 188.469L121.866 188.508L122.985 185.186L123.921 188.532L127.471 188.573L124.669 190.393L125.605 193.739ZM71.4104 161.061L74.7732 161.1L75.8924 157.777L77.015 161.125L80.3778 161.164L77.5765 163.17L78.6991 166.333L75.8957 164.262L73.0944 166.268L74.2137 163.131L71.4104 161.061ZM77.2123 181.509L78.3315 178.187L75.5282 176.302L79.0778 176.343L80.0102 173.018L81.1329 176.366L84.4957 176.405L81.6943 178.225L82.8169 181.574L80.0135 179.503L77.2123 181.509Z" fill="#FFCC00"/>
</svg>
