<svg width="536" height="533" viewBox="0 0 536 533" fill="none" xmlns="http://www.w3.org/2000/svg">
<rect width="536" height="533" rx="266.5" fill="url(#paint0_linear_15_14469)"/>
<g clip-path="url(#clip0_15_14469)">
<mask id="mask0_15_14469" style="mask-type:alpha" maskUnits="userSpaceOnUse" x="250" y="112" width="142" height="171">
<path d="M250.895 112.175H391.626V282.342H250.895V112.175Z" fill="white"/>
</mask>
<g mask="url(#mask0_15_14469)">
<path d="M323.929 112.175L264.416 274.015C263.68 276.008 262.392 277.756 260.7 279.058C259.007 280.36 256.979 281.164 254.846 281.378V281.455H317.758C322.684 281.455 326.9 278.354 328.469 274.021L388.004 112.175H323.929Z" fill="#0996C7"/>
</g>
<path d="M249.712 278.999C253.361 278.999 256.556 277.204 258.51 274.485C258.714 274.201 259.428 273.211 259.933 271.864L281.762 212.473L268.992 177.788C268.248 176.032 267.044 174.504 265.503 173.364C263.962 172.223 262.141 171.512 260.228 171.302C258.316 171.093 256.382 171.393 254.626 172.173C252.87 172.952 251.357 174.182 250.244 175.735C250.035 176.019 249.186 177.283 248.821 178.356L226.992 237.726L239.819 272.55C240.651 274.464 242.032 276.095 243.79 277.241C245.548 278.387 247.607 278.998 249.712 278.999" fill="#0996C7"/>
<mask id="mask1_15_14469" style="mask-type:alpha" maskUnits="userSpaceOnUse" x="115" y="163" width="142" height="176">
<path d="M115.376 163.683H256.107V338.045H115.376V163.683Z" fill="white"/>
</mask>
<g mask="url(#mask1_15_14469)">
<path d="M254.377 168.759H190.772C185.846 168.759 181.629 171.844 180.04 176.199L120.526 338.039H184.6L244.119 176.204C244.891 174.098 246.279 172.268 248.106 170.946C249.933 169.624 252.116 168.87 254.377 168.78V168.759Z" fill="#0996C7"/>
</g>
</g>
<path d="M274.181 378C259.841 378 250.931 369.634 250.931 356.149C250.931 342.153 259.153 333.446 272.393 333.446H273.504C275.165 333.446 277.451 333.5 280.575 333.893V317H289.927V376.477C289.927 376.477 281.041 378 274.181 378ZM274.097 340.862C265.038 340.862 260.632 345.788 260.632 355.914C260.632 365.006 265.948 370.657 274.487 370.657C276.129 370.657 278.009 370.548 280.572 370.327V341.468C278.012 341.053 275.947 340.862 274.097 340.862V340.862ZM146.076 376.636L120.813 332.232L120.805 376.636H112V320.422H124.327L149.59 364.43L149.579 320.422H158.501V376.636H146.076ZM226.548 377.501C222.294 377.501 217.859 377.02 212.579 375.997L212.008 375.888V368.035L212.842 368.215C217.499 369.216 221.52 370.07 225.543 370.07C228.791 370.07 236.358 369.557 236.358 364.741C236.358 360.703 231.129 359.688 226.93 358.877L226.664 358.823C225.879 358.675 225.139 358.525 224.516 358.367C218.355 356.757 211.783 354.337 211.783 346.022C211.783 337.913 218.155 333.266 229.268 333.266C234.602 333.266 238.474 333.839 241.587 334.308L243.098 334.532V342.153L242.294 342.006C238.772 341.354 234.643 340.682 230.674 340.682C226.261 340.682 221.024 341.515 221.024 345.468C221.024 348.751 225.31 349.69 230.273 350.779C237.214 352.29 245.818 354.189 245.818 363.729C245.818 372.48 238.802 377.501 226.548 377.501ZM316.182 377.501C306.502 377.501 297.537 375.782 297.537 363.333C297.537 349.785 311.4 349.785 319.688 349.785C320.511 349.785 324.407 349.968 325.602 350.02C325.591 342.421 325.496 340.609 314.554 340.609C310.216 340.609 305.399 341.471 301.146 342.24L300.333 342.388V334.884L300.88 334.767C305.811 333.757 310.566 333.266 315.412 333.266C326.016 333.266 335 334.341 335 347.591V376.488L334.355 376.562C327.011 377.391 321.18 377.501 316.185 377.501H316.182ZM319.455 356.49C311.462 356.49 306.51 357.674 306.51 363.568C306.51 370.39 312.828 370.955 318.756 370.955C320.966 370.955 324.946 370.668 326.163 370.581V356.724C324.45 356.651 319.994 356.49 319.455 356.49V356.49ZM184.956 377.501C175.263 377.501 166.301 375.782 166.301 363.333C166.301 349.785 180.164 349.785 188.448 349.785C189.275 349.785 193.179 349.968 194.376 350.02C194.365 342.421 194.26 340.609 183.317 340.609C178.977 340.609 174.16 341.471 169.907 342.24L169.094 342.388V334.884L169.655 334.767C174.432 333.772 179.297 333.269 184.176 333.266C194.777 333.266 203.763 334.341 203.763 347.591V376.488L203.116 376.562C195.774 377.391 189.941 377.501 184.956 377.501V377.501ZM188.215 356.49C180.226 356.49 175.284 357.674 175.284 363.568C175.284 370.39 181.591 370.955 187.519 370.955C189.741 370.955 193.72 370.668 194.937 370.581V356.724C193.211 356.651 188.757 356.49 188.218 356.49" fill="#231F20"/>
<mask id="mask2_15_14469" style="mask-type:alpha" maskUnits="userSpaceOnUse" x="340" y="330" width="42" height="66">
<path d="M340.95 330.895H381.634V395.664H340.95V330.895Z" fill="white"/>
</mask>
<g mask="url(#mask2_15_14469)">
<path d="M372.064 395.2V376.962C368.417 377.469 366.481 377.469 364.916 377.469C361.212 377.469 357.1 376.668 353.916 375.329C346.788 372.374 342.537 364.872 342.537 355.245C342.537 350.442 343.712 341.657 351.569 336.924C355.513 334.576 360.167 333.572 367.169 333.572C369.673 333.572 373.057 333.761 376.325 333.95L381.634 334.225V390.974L372.064 395.2V395.2ZM366.47 340.91C356.973 340.907 352.159 345.738 352.159 355.245C352.159 367.487 359.339 370.059 365.376 370.059C366.846 370.059 368.498 370.059 372.156 369.594V341.174C369.291 340.985 367.967 340.91 366.467 340.91H366.47Z" fill="#231F20"/>
</g>
<defs>
<linearGradient id="paint0_linear_15_14469" x1="79.215" y1="-91.3123" x2="670.88" y2="596.82" gradientUnits="userSpaceOnUse">
<stop stop-color="#C2F0FF"/>
<stop offset="1" stop-color="#5FAEC9"/>
</linearGradient>
<clipPath id="clip0_15_14469">
<rect width="273" height="227" fill="white" transform="translate(115 57)"/>
</clipPath>
</defs>
</svg>
