<svg width="633" height="615" viewBox="0 0 633 615" fill="none" xmlns="http://www.w3.org/2000/svg">
<rect width="633" height="615" rx="307.5" fill="url(#paint0_linear_16_14470)"/>
<g clip-path="url(#clip0_16_14470)">
<rect x="106" y="185" width="206" height="207" rx="103" fill="#FF0000"/>
<path d="M-34.4119 104.361V472.639H452.412V104.361H-34.4119Z" fill="#012169"/>
<path d="M-34.4119 104.361L452.412 472.639L-34.4119 104.361ZM452.412 104.361L-34.4119 472.639Z" fill="black"/>
<path d="M452.412 104.361L-34.4119 472.639M-34.4119 104.361L452.412 472.639L-34.4119 104.361Z" stroke="#C8102E" stroke-width="56"/>
<path d="M12.0496 139.509L405.95 437.491L12.0496 139.509ZM405.95 139.509L12.0496 437.491Z" fill="black"/>
<path d="M405.95 139.509L12.0496 437.491M12.0496 139.509L405.95 437.491L12.0496 139.509Z" stroke="white" stroke-width="20"/>
<path d="M209 104.361V472.639V104.361ZM-34.4119 288.5H452.412Z" fill="black"/>
<path d="M-34.4119 288.5H452.412M209 104.361V472.639V104.361Z" stroke="white" stroke-width="62"/>
<path d="M-34.4119 288.5H452.412Z" fill="black"/>
<path d="M209 104.361V472.639M-34.4119 288.5H452.412" stroke="#C8102E" stroke-width="20"/>
</g>
<g clip-path="url(#clip1_16_14470)">
<rect x="282" y="195" width="226" height="225" rx="112.5" fill="#FF0000"/>
<path d="M282 185.65H517.392V420H282V185.65ZM404.11 401.936L401.903 359.801C401.871 359.109 401.995 358.417 402.267 357.779C402.539 357.14 402.951 356.57 403.473 356.111C403.995 355.652 404.615 355.315 405.285 355.126C405.955 354.937 406.66 354.899 407.346 355.017L449.471 362.389L443.783 346.766C443.552 346.144 443.523 345.466 443.698 344.827C443.874 344.188 444.247 343.619 444.764 343.202L490.91 305.999L480.514 301.165C479.812 300.835 479.255 300.261 478.948 299.55C478.641 298.84 478.605 298.043 478.846 297.308L487.968 269.381L461.388 274.996C460.668 275.145 459.918 275.042 459.266 274.704C458.613 274.366 458.098 273.814 457.808 273.141L452.659 261.081L431.915 283.247C431.441 283.745 430.817 284.077 430.138 284.192C429.458 284.307 428.759 284.2 428.146 283.887C427.533 283.573 427.038 283.07 426.736 282.453C426.434 281.836 426.342 281.138 426.472 280.464L436.476 229.102L420.44 238.33C420.063 238.55 419.646 238.69 419.212 238.742C418.779 238.795 418.34 238.758 417.921 238.634C417.503 238.511 417.115 238.303 416.78 238.024C416.446 237.745 416.172 237.4 415.977 237.012L399.696 205.179L383.415 237.012C383.219 237.4 382.946 237.745 382.612 238.024C382.277 238.303 381.889 238.511 381.471 238.634C381.052 238.758 380.613 238.795 380.18 238.742C379.746 238.69 379.329 238.55 378.952 238.33L362.916 229.102L372.92 280.464C373.05 281.138 372.958 281.836 372.656 282.453C372.354 283.07 371.859 283.573 371.246 283.887C370.633 284.2 369.934 284.307 369.254 284.192C368.575 284.077 367.951 283.745 367.477 283.247L346.733 261.081L341.584 273.141C341.293 273.814 340.779 274.366 340.126 274.704C339.474 275.042 338.724 275.145 338.004 274.996L311.424 269.381L320.545 297.308C320.787 298.043 320.751 298.84 320.444 299.55C320.137 300.261 319.58 300.835 318.878 301.165L308.482 305.999L354.628 343.202C355.145 343.619 355.518 344.188 355.693 344.827C355.869 345.466 355.84 346.144 355.609 346.766L349.92 362.389L392.046 355.017C392.732 354.899 393.437 354.937 394.107 355.126C394.777 355.315 395.396 355.652 395.919 356.111C396.441 356.57 396.853 357.14 397.125 357.779C397.397 358.417 397.521 359.109 397.489 359.801L395.282 401.936H404.11Z" fill="white"/>
</g>
<defs>
<linearGradient id="paint0_linear_16_14470" x1="4.94454e-06" y1="-54.0692" x2="833.251" y2="896.303" gradientUnits="userSpaceOnUse">
<stop stop-color="#B85EFF"/>
<stop offset="1" stop-color="#4232A4"/>
</linearGradient>
<clipPath id="clip0_16_14470">
<rect x="106" y="185" width="206" height="207" rx="103" fill="white"/>
</clipPath>
<clipPath id="clip1_16_14470">
<rect x="282" y="195" width="226" height="225" rx="112.5" fill="white"/>
</clipPath>
</defs>
</svg>
