<svg width="221" height="219" viewBox="0 0 221 219" fill="none" xmlns="http://www.w3.org/2000/svg">
<path d="M111 0H110C49.5248 0 0.5 49.0248 0.5 109.5C0.5 169.975 49.5248 219 110 219H111C171.475 219 220.5 169.975 220.5 109.5C220.5 49.0248 171.475 0 111 0Z" fill="url(#paint0_linear_215_170)"/>
<g clip-path="url(#clip0_215_170)">
<path d="M146.053 109.5C144.2 107.05 142.032 104.887 139.591 103.053C137.868 101.764 136.002 100.632 134.02 99.7008C134.795 98.7266 135.499 97.6808 136.116 96.6064C138.328 92.8099 139.577 88.4118 139.577 83.7128C139.577 79.0139 138.313 74.6157 136.116 70.8193C133.848 66.9083 130.574 63.6419 126.654 61.3784C124.644 60.2179 122.475 59.3297 120.192 58.728V45.0322H107.269V57.9258H100.808V45.0322H87.8846V57.9258H68.5V70.8193H74.9615V148.181H68.5V161.074H87.8846V173.968H100.808V161.074H107.269V173.968H120.192V161.074C122.404 161.074 124.572 160.859 126.654 160.429C131.421 159.47 135.815 157.45 139.577 154.642C142.018 152.808 144.201 150.63 146.038 148.195C150.088 142.808 152.5 136.104 152.5 128.855C152.5 121.605 150.102 114.887 146.053 109.5V109.5ZM87.899 70.8193H113.745C116.1 70.8193 118.311 71.4496 120.207 72.5528C124.069 74.7733 126.668 78.9422 126.668 83.7128C126.668 88.4834 124.069 92.6523 120.207 94.8729C118.311 95.976 116.1 96.6064 113.745 96.6064H87.899V70.8193ZM126.668 147.077C124.644 147.794 122.475 148.181 120.207 148.181H87.899V109.5H120.207C122.475 109.5 124.644 109.887 126.668 110.603C134.207 113.268 139.591 120.431 139.591 128.84C139.591 137.25 134.207 144.427 126.668 147.077Z" fill="white"/>
</g>
<defs>
<linearGradient id="paint0_linear_215_170" x1="25.5147" y1="-4.73751" x2="188.311" y2="254.282" gradientUnits="userSpaceOnUse">
<stop stop-color="#F77C41"/>
<stop offset="1" stop-color="#F75A7D"/>
</linearGradient>
<clipPath id="clip0_215_170">
<rect width="84" height="135" fill="white" transform="translate(68.5 42)"/>
</clipPath>
</defs>
</svg>
