<svg width="356" height="354" viewBox="0 0 356 354" fill="none" xmlns="http://www.w3.org/2000/svg">
<g clip-path="url(#clip0_389_170)">
<path d="M179.246 -0.163818H177.253C79.4658 -0.163818 0.193359 79.1086 0.193359 176.896C0.193359 274.684 79.4658 353.956 177.253 353.956H179.246C277.034 353.956 356.306 274.684 356.306 176.896C356.306 79.1086 277.034 -0.163818 179.246 -0.163818Z" fill="#D9D9D9"/>
<g opacity="0.6">
<path opacity="0.6" d="M178.263 141.979L106.701 174.646L178.263 217.082L249.796 174.646L178.263 141.979Z" fill="#010101"/>
</g>
<g opacity="0.45">
<path opacity="0.45" d="M106.674 174.646L178.236 217.082V55.469L106.674 174.646Z" fill="#010101"/>
</g>
<g opacity="0.8">
<path opacity="0.8" d="M178.236 55.469V217.082L249.769 174.646L178.236 55.469Z" fill="#010101"/>
</g>
<g opacity="0.45">
<path opacity="0.45" d="M106.674 188.255L178.236 289.446V230.691L106.674 188.255Z" fill="#010101"/>
</g>
<g opacity="0.8">
<path opacity="0.8" d="M178.236 230.691V289.446L249.825 188.255L178.236 230.691Z" fill="#010101"/>
</g>
</g>
<defs>
<clipPath id="clip0_389_170">
<rect width="356" height="354" rx="177" fill="white"/>
</clipPath>
</defs>
</svg>
