<svg width="260" height="263" viewBox="0 0 260 263" fill="none" xmlns="http://www.w3.org/2000/svg">
<rect width="260" height="263" rx="130" fill="url(#paint0_linear_15_14454)"/>
<path d="M34.3733 148.001L147.577 150.304C148.368 147.586 148.775 144.677 148.987 141.947L33.0832 139.59C33.2565 142.327 33.6214 145.251 34.3733 148.001V148.001ZM41.7735 165.103L139.935 167.1C141.69 164.402 143.445 161.703 144.623 158.811L37.2049 156.625C38.5341 159.569 40.0574 162.334 41.7735 165.103ZM59.7806 182.422L121.879 183.685C125.946 181.398 129.631 178.557 132.931 175.525L48.8479 173.814C52.1043 176.979 55.749 179.788 59.7806 182.422ZM122.351 90.5494L60.4453 89.29C56.3785 91.5769 52.6935 94.4184 49.3929 97.45L133.283 99.1567C130.028 95.8095 126.384 93.0011 122.351 90.5494Z" fill="white"/>
<path d="M37.2009 156.448L144.822 158.638C145.999 155.927 146.983 153.212 147.775 150.311L34.3677 148.003C35.1183 150.936 36.0632 153.69 37.2009 156.448ZM48.845 173.643L132.744 175.35C135.462 172.853 137.797 169.983 139.94 167.109L41.7686 165.111C43.8694 168.071 46.163 171.036 48.845 173.643ZM90.7697 191.453C102.149 191.685 112.779 188.802 121.882 183.699L59.7775 182.435C68.6118 187.903 79.1975 191.218 90.7697 191.453V191.453ZM34.5498 122.48L147.765 124.783C147.014 121.851 146.07 118.914 144.931 116.338L37.5027 114.152C36.3259 116.863 35.3421 119.578 34.5498 122.48V122.48ZM32.9158 135.21C32.9054 136.668 32.8949 138.127 33.0787 139.407L149.187 141.77C149.39 140.315 149.399 139.039 149.409 137.581C149.42 136.122 149.43 134.664 149.246 133.383L33.1386 131.021C32.9353 132.475 32.9262 133.752 32.9158 135.21ZM49.3887 97.4365C46.6703 99.9339 44.3351 102.804 42.1927 105.678L140.364 107.675C138.264 104.533 135.969 101.751 133.287 99.1438L49.3887 97.4365ZM91.5554 81.3371C80.1761 81.1056 69.5461 83.989 60.4435 89.0916L122.548 90.3553C113.521 84.8838 102.935 81.5687 91.5554 81.3371Z" fill="#BF0A30"/>
<path d="M33.1791 130.925L149.23 133.275C149.058 130.37 148.499 127.639 147.94 124.908L34.5884 122.614C33.7978 125.317 33.3927 128.029 33.1791 130.925V130.925ZM37.5411 114.152L145.109 116.33C143.781 113.402 142.259 110.47 140.543 107.897L42.2275 105.907C40.4743 108.409 38.9113 111.279 37.5411 114.152V114.152Z" fill="white"/>
<path d="M91.4002 81.4427C59.1694 80.7273 32.9538 104.719 32.755 135.114C32.7455 136.57 32.7359 138.026 32.9194 139.486L91.0122 140.776L91.4002 81.4427Z" fill="#002868"/>
<path d="M36.5484 116.268C36.5473 116.45 36.3531 116.627 36.3519 116.809L36.5484 116.268ZM35.9575 118.075C35.7609 118.617 35.5644 119.158 35.3666 119.882L35.9575 118.075ZM38.5405 136.336L36.8106 135.206L35.0665 136.259L35.8504 134.456L34.1217 133.143L36.2447 133.191L36.8356 131.383L37.5957 133.221L39.7188 133.268L37.9734 134.503L38.5405 136.336ZM46.5072 128.321L44.7785 127.009L43.0332 128.244L43.6253 126.255L41.8954 125.124L44.0184 125.171L44.8024 123.368L45.3695 125.201L47.4925 125.248L45.7483 126.302L46.5072 128.321ZM46.0508 109.561L46.8098 111.58L45.0811 110.268L43.3357 111.503L43.9278 109.514L42.1979 108.383L44.321 108.43L45.1049 106.627L45.672 108.46L47.795 108.507L46.0508 109.561ZM54.5598 136.692L52.8299 135.561L51.0857 136.615L51.6767 134.807L49.948 133.495L52.264 133.546L52.8549 131.739L53.422 133.572L55.5451 133.619L53.7997 134.855L54.5598 136.692ZM54.6824 117.944L53.9068 118.473L54.6669 120.311L52.9371 119.18L51.1929 120.233L51.7838 118.426L51.0154 117.863L50.0551 117.113L52.3711 117.165L52.9621 115.358L53.5292 117.191L55.6522 117.238L54.6824 117.944ZM54.0187 101.364L54.7789 103.201L53.049 102.071L51.3048 103.124L51.8957 101.317L50.167 100.004L52.483 100.056L53.074 98.2483L53.6411 100.081L55.7641 100.128L54.0187 101.364ZM62.3299 129.219L60.6001 128.088L58.8559 129.141L59.6398 127.338L57.9111 126.026L60.0341 126.073L60.6251 124.266L61.3852 126.103L63.5082 126.15L61.7628 127.386L62.3299 129.219ZM62.0654 110.645L62.6325 112.478L60.9026 111.347L59.1584 112.4L59.9423 110.597L58.2136 109.285L60.3367 109.332L60.9276 107.525L61.6877 109.362L63.8107 109.409L62.0654 110.645ZM62.3691 93.7216L62.9362 95.5546L61.2063 94.4239L59.4621 95.4774L60.053 93.6702L58.5173 92.3618L60.6404 92.4089L61.2313 90.6016L61.7984 92.4346L63.9214 92.4817L62.3691 93.7216ZM70.3861 137.043L68.6562 135.912L67.105 136.97L67.6959 135.163L65.9672 133.85L68.0903 133.897L68.6812 132.09L69.4413 133.927L71.5643 133.975L69.819 135.21L70.3861 137.043ZM70.7017 118.3L69.9261 118.829L70.4932 120.662L68.7633 119.531L67.2122 120.589L67.8031 118.782L67.0346 118.219L66.0744 117.469L68.1974 117.516L68.7883 115.709L69.5484 117.546L71.6715 117.593L70.7017 118.3ZM70.038 101.72L70.6051 103.553L68.8752 102.422L67.3241 103.48L67.915 101.672L66.1863 100.36L68.3093 100.407L68.9002 98.5996L69.6604 100.437L71.7834 100.484L70.038 101.72ZM78.3492 129.574L76.6193 128.444L74.8752 129.497L75.4661 127.69L73.7374 126.377L76.0534 126.429L76.6443 124.621L77.2114 126.454L79.3345 126.501L77.5891 127.737L78.3492 129.574ZM77.8916 110.996L78.6518 112.833L76.9219 111.703L75.1777 112.756L75.7686 110.949L74.0399 109.636L76.1629 109.683L76.9469 107.88L77.514 109.713L79.637 109.76L77.8916 110.996ZM78.1954 94.0729L78.9555 95.9102L77.2256 94.7795L75.4814 95.833L76.0723 94.0258L74.3436 92.7131L76.4667 92.7602L77.2506 90.9572L77.8177 92.7902L79.9407 92.8373L78.1954 94.0729ZM86.4054 137.399L84.6755 136.268L82.9313 137.322L83.7152 135.519L81.9865 134.206L84.1096 134.253L84.7005 132.446L85.2676 134.279L87.3906 134.326L85.8383 135.566L86.4054 137.399ZM86.721 118.656L85.9454 119.184L86.5125 121.017L84.7826 119.887L83.0384 120.94L83.8224 119.137L83.0539 118.574L82.0937 117.825L84.2167 117.872L84.8076 116.065L85.3747 117.898L87.4978 117.945L86.721 118.656ZM86.0573 102.075L86.6244 103.908L84.8945 102.778L83.1504 103.831L83.9343 102.028L82.2056 100.715L84.3286 100.762L84.9195 98.9552L85.4866 100.788L87.6097 100.835L86.0573 102.075ZM86.1668 85.3299L86.7339 87.1628L85.004 86.0322L83.2599 87.0857L84.0438 85.2827L82.3151 83.9701L84.4381 84.0172L85.029 82.2099L85.5962 84.0429L87.7192 84.09L86.1668 85.3299ZM68.9848 85.6766L70.7147 86.8072L70.1475 84.9743L70.3417 84.7965C69.3743 85.1391 68.6 85.486 67.6326 85.8286L67.2394 86.9121L68.9848 85.6766Z" fill="white"/>
<path d="M68.8993 98.6547L68.3084 100.462L66.1853 100.415L67.914 101.728L67.3231 103.535L68.8743 102.477L70.6042 103.608L70.0371 101.775L71.7825 100.539L69.6594 100.492L68.8993 98.6547ZM68.7874 115.765L68.1964 117.572L66.0734 117.525L67.0336 118.275L67.8021 118.838L67.2112 120.645L68.7624 119.588L70.4923 120.718L69.9252 118.885L70.7008 118.356L71.6706 117.65L69.5475 117.602L68.7874 115.765ZM69.4404 133.985L68.6802 132.147L68.0893 133.955L65.9662 133.907L67.695 135.22L67.104 137.028L68.6552 135.97L70.3852 137.1L69.818 135.267L71.5634 134.032L69.4404 133.985ZM53.0726 98.3034L52.4817 100.111L50.1656 100.059L51.8944 101.372L51.3034 103.179L53.0476 102.126L54.7776 103.257L54.0174 101.419L55.7628 100.184L53.6398 100.136L53.0726 98.3034ZM52.9607 115.414L52.3698 117.221L50.0537 117.17L51.014 117.919L51.7824 118.482L51.1915 120.29L52.9357 119.236L54.6657 120.367L53.9055 118.53L54.6811 118.001L55.6509 117.294L53.5279 117.247L52.9607 115.414ZM53.4207 133.629L52.8536 131.796L52.2627 133.603L49.9466 133.552L51.6753 134.865L51.0844 136.672L52.8286 135.618L54.5585 136.749L53.7984 134.912L55.5438 133.676L53.4207 133.629ZM35.1719 119.934C35.3649 119.938 35.3649 119.938 35.1719 119.934V119.934ZM36.9411 115.058L36.5467 116.324C36.7421 115.964 36.9375 115.604 36.9411 115.058Z" fill="white"/>
<path d="M38.6477 119.955L38.0818 117.94L38.8573 117.411L39.8271 116.704L37.7041 116.657L37.137 114.824L36.5508 115.904L36.3542 116.445C36.1589 116.805 36.1565 117.169 35.9611 117.529L35.3702 119.336L35.369 119.518L37.1132 118.465L38.6477 119.955V119.955ZM37.5957 133.221L36.8356 131.383L36.2447 133.191L34.1217 133.143L35.8504 134.456L35.0665 136.259L36.8106 135.206L38.5405 136.336L37.9734 134.503L39.7188 133.268L37.5957 133.221ZM76.9469 107.88L76.1629 109.683L74.0399 109.636L75.7686 110.949L75.1777 112.756L76.9219 111.703L78.6518 112.833L77.8916 110.996L79.637 109.76L77.514 109.713L76.9469 107.88ZM77.2114 126.454L76.6443 124.621L76.0534 126.429L73.7374 126.377L75.4661 127.69L74.8752 129.497L76.6193 128.444L78.3492 129.574L77.5891 127.737L79.3345 126.501L77.2114 126.454ZM60.9276 107.525L60.3367 109.332L58.2136 109.285L59.9423 110.597L59.1584 112.4L60.9026 111.347L62.6325 112.478L62.0654 110.645L63.8107 109.409L61.6877 109.362L60.9276 107.525ZM61.3852 126.103L60.6251 124.266L60.0341 126.073L57.9111 126.026L59.6398 127.338L58.8559 129.141L60.6001 128.088L62.3299 129.219L61.7628 127.386L63.5082 126.15L61.3852 126.103ZM45.1049 106.627L44.321 108.43L42.1979 108.383L43.9278 109.514L43.3357 111.503L45.0811 110.268L46.8098 111.58L46.0508 109.561L47.795 108.507L45.672 108.46L45.1049 106.627ZM45.3695 125.201L44.8024 123.368L44.0184 125.171L41.8954 125.124L43.6253 126.255L43.0332 128.244L44.7785 127.009L46.5072 128.321L45.7483 126.302L47.4925 125.248L45.3695 125.201ZM84.9195 98.9552L84.3286 100.762L82.2056 100.715L83.9343 102.028L83.1504 103.831L84.8945 102.778L86.6244 103.908L86.0573 102.075L87.6097 100.835L85.4866 100.788L84.9195 98.9552ZM61.2313 90.6016L60.6404 92.4089L58.5173 92.3618L60.053 93.6702L59.4621 95.4774L61.2063 94.4239L62.9362 95.5546L62.3691 93.7216L63.9214 92.4817L61.7984 92.4346L61.2313 90.6016ZM77.2506 90.9572L76.4667 92.7602L74.3436 92.7131L76.0723 94.0258L75.4814 95.833L77.2256 94.7795L78.9555 95.9102L78.1954 94.0729L79.9407 92.8373L77.8177 92.7902L77.2506 90.9572ZM85.029 82.2099L84.4381 84.0172L82.3151 83.9701L84.0438 85.2827L83.2599 87.0857L85.004 86.0322L86.7339 87.1628L86.1668 85.3299L87.7192 84.09L85.5962 84.0429L85.029 82.2099ZM84.8076 116.065L84.2167 117.872L82.0937 117.825L83.0539 118.574L83.8224 119.137L83.0384 120.94L84.7826 119.887L86.5125 121.017L85.9454 119.184L86.721 118.656L87.4978 117.945L85.3747 117.898L84.8076 116.065ZM85.2676 134.279L84.7005 132.446L84.1096 134.253L81.9865 134.206L83.7152 135.519L82.9313 137.322L84.6755 136.268L86.4054 137.399L85.8383 135.566L87.3906 134.326L85.2676 134.279Z" fill="white"/>
<path d="M158.251 191.246C190.104 197.523 220.907 178.045 227.053 147.74C233.199 117.435 212.36 87.7799 180.508 81.503C148.656 75.2261 117.852 94.7046 111.706 125.009C105.56 155.314 126.399 184.969 158.251 191.246Z" fill="white"/>
<path fill-rule="evenodd" clip-rule="evenodd" d="M138.384 88.311C125.403 95.7923 115.57 108.078 111.966 123.224L138.384 123.224V88.311ZM111.462 145.708C114.456 161.282 124.275 175.124 138.384 183.634V145.708H111.462ZM169.35 192.437C197.016 192.842 221.699 174.529 227.126 147.769C227.265 147.082 227.391 146.394 227.503 145.708L169.35 145.708V192.437ZM226.355 123.224L169.35 123.224V80.3315C173.02 80.3852 176.743 80.7683 180.481 81.5048C203.554 86.0518 220.863 102.824 226.355 123.224Z" fill="#BF0A30"/>
<defs>
<linearGradient id="paint0_linear_15_14454" x1="-60.5536" y1="-28.6696" x2="454.951" y2="424.939" gradientUnits="userSpaceOnUse">
<stop stop-color="#FF4141"/>
<stop offset="1" stop-color="#4F58FC"/>
</linearGradient>
</defs>
</svg>
