<svg width="16" height="20" viewBox="0 0 16 20" fill="none" xmlns="http://www.w3.org/2000/svg">
<path d="M9.07138 1.97253C10.3137 0.351652 12.0409 0.34375 12.0409 0.34375C12.0409 0.34375 12.2978 1.86765 11.0636 3.33566C9.74575 4.90316 8.24787 4.64667 8.24787 4.64667C8.24787 4.64667 7.96661 3.41388 9.07138 1.97253V1.97253ZM8.40588 5.71416C9.045 5.71416 10.2312 4.8445 11.7752 4.8445C14.4329 4.8445 15.4784 6.71649 15.4784 6.71649C15.4784 6.71649 13.4335 7.75142 13.4335 10.2626C13.4335 13.0955 15.9809 14.0718 15.9809 14.0718C15.9809 14.0718 14.2002 19.0331 11.7949 19.0331C10.6902 19.0331 9.83139 18.2962 8.66742 18.2962C7.48124 18.2962 6.30413 19.0606 5.53747 19.0606C3.34114 19.0606 0.566406 14.3543 0.566406 10.5712C0.566406 6.84917 2.91503 4.89664 5.11795 4.89664C6.55005 4.89664 7.66137 5.71416 8.40588 5.71416V5.71416Z" fill="url(#paint0_linear_420_1523)"/>
<defs>
<linearGradient id="paint0_linear_420_1523" x1="-16.9795" y1="-9.08317" x2="19.9496" y2="19.0605" gradientUnits="userSpaceOnUse">
<stop stop-color="white"/>
<stop offset="1" stop-color="#1E1E1E"/>
</linearGradient>
</defs>
</svg>
