<svg width="338" height="336" viewBox="0 0 338 336" fill="none" xmlns="http://www.w3.org/2000/svg">
<g clip-path="url(#clip0_16_14474)">
<path d="M0.937285 16.6077C0.937285 9.67551 2.32521 0.60376 11.704 0.60376L317.63 0.604115C324.562 0.604115 337.416 15.3111 337.416 22.2433V322.851C337.416 329.784 331.796 335.403 324.864 335.403H24.2558C17.3236 335.403 2.1269 322.738 2.1269 315.806L0.937285 16.6077Z" fill="white"/>
<path d="M262.342 168.036C262.342 219.584 220.553 261.377 169.003 261.377C117.453 261.377 75.6604 219.584 75.6604 168.036C75.6604 116.485 117.453 74.6943 169.003 74.6943C220.554 74.6943 262.342 116.484 262.342 168.036Z" fill="#345E9D"/>
<path d="M162.076 199.691L169.773 170.709L187.996 164.052L192.529 147.019L192.374 146.596L174.436 153.149L187.36 104.485H150.707L133.805 167.993L119.694 173.148L115.031 190.708L129.132 185.557L119.17 222.986H216.719L222.973 199.691H162.076Z" fill="white"/>
</g>
<defs>
<clipPath id="clip0_16_14474">
<rect x="0.500977" y="0.535645" width="337" height="335" rx="167.5" fill="white"/>
</clipPath>
</defs>
</svg>
