<svg width="118" height="115" viewBox="0 0 118 115" fill="none" xmlns="http://www.w3.org/2000/svg">
<path d="M61.2441 114.349H57.2793C25.9714 114.349 0.591309 88.9691 0.591309 57.6611C0.591309 26.3532 25.9713 0.973145 57.2793 0.973145H61.244C92.5519 0.973145 117.932 26.3532 117.932 57.6611C117.932 88.9691 92.552 114.349 61.2441 114.349Z" fill="url(#paint0_linear_237_485)"/>
<path d="M79.9736 65.1547C77.1348 62.3159 73.6503 60.3578 69.8514 59.4163C73.8712 57.4542 76.647 53.3246 76.647 48.5587C76.647 41.9009 71.2305 36.4844 64.5727 36.4844C57.9149 36.4844 52.4984 41.9009 52.4984 48.5587C52.4984 53.3248 55.2743 57.4542 59.2941 59.4163C55.4951 60.3577 52.0106 62.3159 49.1719 65.1547C45.058 69.2684 42.7925 74.7379 42.7925 80.5555C42.7925 81.0685 43.2083 81.4844 43.7213 81.4844H85.4242C85.9371 81.4844 86.353 81.0686 86.353 80.5555C86.353 74.7379 84.0874 69.2684 79.9736 65.1547ZM54.356 48.5586C54.356 42.9251 58.9392 38.3419 64.5728 38.3419C70.2063 38.3419 74.7896 42.9251 74.7896 48.5586C74.7896 54.1922 70.2063 58.7754 64.5728 58.7754C58.9392 58.7754 54.356 54.1921 54.356 48.5586ZM44.6715 79.6268C45.158 69.0706 53.8985 60.633 64.5728 60.633C75.247 60.633 83.9876 69.0706 84.4741 79.6268H44.6715V79.6268Z" fill="white"/>
<path d="M47.8209 77.4443C47.749 77.4443 47.676 77.436 47.6031 77.4184C47.1043 77.2985 46.7972 76.7971 46.917 76.2982C48.0492 71.5867 51.0948 67.4528 55.273 64.9568C55.7132 64.6937 56.2836 64.8374 56.5466 65.2779C56.8097 65.7182 56.666 66.2885 56.2256 66.5515C52.4737 68.7929 49.7392 72.5035 48.723 76.7322C48.6209 77.1581 48.2403 77.4443 47.8209 77.4443Z" fill="white"/>
<path d="M60.5781 64.7208C60.1575 64.7208 59.7765 64.4333 59.6752 64.0063C59.5568 63.5072 59.8653 63.0066 60.3643 62.8881C61.7353 62.5628 63.1511 62.3977 64.5726 62.3977C65.0856 62.3977 65.5015 62.8135 65.5015 63.3265C65.5015 63.8396 65.0857 64.2554 64.5726 64.2554C63.2954 64.2554 62.0239 64.4034 60.7933 64.6955C60.7213 64.7126 60.6491 64.7208 60.5781 64.7208Z" fill="white"/>
<path d="M41.6744 52.8459C40.7837 52.8459 40.0616 52.1238 40.0616 51.2331V35.4507C40.0616 34.56 40.7837 33.8379 41.6744 33.8379V33.8379C42.5651 33.8379 43.2872 34.56 43.2872 35.4507V51.2331C43.2872 52.1238 42.5651 52.8459 41.6744 52.8459V52.8459ZM33.7832 44.9547C32.8925 44.9547 32.1704 44.2326 32.1704 43.3419V43.3419C32.1704 42.4512 32.8925 41.7291 33.7832 41.7291H49.5656C50.4563 41.7291 51.1784 42.4512 51.1784 43.3419V43.3419C51.1784 44.2326 50.4563 44.9547 49.5656 44.9547H33.7832Z" fill="white"/>
<defs>
<linearGradient id="paint0_linear_237_485" x1="0.591307" y1="-7.24271" x2="90.109" y2="110.097" gradientUnits="userSpaceOnUse">
<stop stop-color="#7ACFED"/>
<stop offset="1" stop-color="#5FE9E8"/>
<stop offset="1" stop-color="#60EBE7"/>
</linearGradient>
</defs>
</svg>
