<svg width="338" height="336" viewBox="0 0 338 336" fill="none" xmlns="http://www.w3.org/2000/svg">
<g clip-path="url(#clip0_389_189)">
<path d="M0.9375 16.6077C0.9375 9.67551 2.32543 0.60376 11.7042 0.60376L317.63 0.604115C324.562 0.604115 337.416 15.3111 337.416 22.2433V322.851C337.416 329.784 331.796 335.403 324.864 335.403H24.256C17.3238 335.403 2.12712 322.738 2.12712 315.806L0.9375 16.6077Z" fill="white"/>
<path d="M337.416 167.743C337.416 260.913 261.885 336.452 168.711 336.452C75.5377 336.452 0 260.913 0 167.743C0 74.5679 75.5377 -0.966309 168.711 -0.966309C261.887 -0.966309 337.416 74.5661 337.416 167.743Z" fill="#345E9D"/>
<path d="M159.063 217.814L169.782 177.454L195.159 168.183L201.471 144.464L201.255 143.875L176.275 153L194.273 85.2316H143.231L119.693 173.672L100.042 180.85L93.5488 205.304L113.186 198.131L99.3127 250.254H235.158L243.867 217.814H159.063Z" fill="white"/>
</g>
<defs>
<clipPath id="clip0_389_189">
<rect width="338" height="336" rx="168" fill="white"/>
</clipPath>
</defs>
</svg>
