<svg width="336" height="335" viewBox="0 0 336 335" fill="none" xmlns="http://www.w3.org/2000/svg">
<rect x="0.000976562" y="0.796387" width="336" height="334" rx="167" fill="url(#paint0_linear_16_14472)"/>
<g clip-path="url(#clip0_16_14472)">
<path d="M135.478 247.708C202.086 247.708 238.511 192.615 238.511 144.84C238.511 143.276 238.479 141.718 238.409 140.167C245.496 135.047 251.613 128.707 256.472 121.446C249.983 124.326 243.001 126.264 235.676 127.138C243.153 122.662 248.892 115.581 251.601 107.141C244.492 111.351 236.715 114.319 228.606 115.917C221.998 108.889 212.59 104.494 202.173 104.494C182.175 104.494 165.959 120.685 165.959 140.643C165.959 143.481 166.277 146.24 166.898 148.887C136.801 147.375 110.114 132.988 92.2529 111.113C89.036 116.63 87.3439 122.901 87.3496 129.284C87.3496 141.828 93.7424 152.901 103.464 159.379C97.7137 159.204 92.0893 157.653 87.064 154.857C87.0586 155.009 87.0586 155.157 87.0586 155.319C87.0586 172.828 99.5407 187.447 116.11 190.759C112.998 191.606 109.787 192.033 106.562 192.031C104.232 192.031 101.962 191.803 99.756 191.38C104.366 205.745 117.734 216.198 133.584 216.491C121.19 226.189 105.577 231.966 88.608 231.966C85.7214 231.969 82.8371 231.801 79.9702 231.465C95.9967 241.721 115.027 247.705 135.48 247.705" fill="white"/>
</g>
<defs>
<linearGradient id="paint0_linear_16_14472" x1="-88.5163" y1="-25.3581" x2="556.116" y2="505.082" gradientUnits="userSpaceOnUse">
<stop stop-color="#3485FF"/>
<stop offset="1" stop-color="white"/>
</linearGradient>
<clipPath id="clip0_16_14472">
<rect width="238" height="160" fill="white" transform="translate(49.2212 87.708)"/>
</clipPath>
</defs>
</svg>
