<svg width="536" height="534" viewBox="0 0 536 534" fill="none" xmlns="http://www.w3.org/2000/svg">
<g clip-path="url(#clip0_16_14473)">
<g filter="url(#filter0_d_16_14473)">
<path d="M-0.208938 25.6727C-0.208938 14.627 2.00258 0.172119 16.9467 0.172119L504.409 0.172685C515.455 0.172685 535.935 23.6068 535.935 34.6525V513.641C535.935 524.687 526.981 533.641 515.935 533.641H36.9467C25.901 533.641 1.6866 513.46 1.6866 502.414L-0.208938 25.6727Z" fill="#E82127"/>
</g>
<g clip-path="url(#clip1_16_14473)">
<path d="M347.015 384.458V401.966H352.638V390.309H373.104V401.966H378.723V384.488L347.015 384.458Z" fill="white"/>
<path d="M352.012 378.794H373.634C376.637 378.198 378.87 375.552 379.5 372.991H346.146C346.769 375.552 349.036 378.198 352.012 378.794Z" fill="white"/>
<path d="M329.984 401.977C332.82 400.777 334.345 398.701 334.929 396.272H309.708L309.724 373.006L304.071 373.022V401.977H329.984" fill="white"/>
<path d="M262.029 378.716H281.997C285.008 377.842 287.536 375.552 288.152 373.014H256.431V390.125H282.394V396.13L262.029 396.145C258.837 397.034 256.131 399.174 254.781 402L256.431 401.97H287.972V384.436H262.029V378.716" fill="white"/>
<path d="M212.733 378.771H234.347C237.355 378.172 239.59 375.528 240.216 372.966H206.864C207.486 375.528 209.754 378.172 212.733 378.771" fill="white"/>
<path d="M212.733 390.214H234.347C237.355 389.622 239.59 386.976 240.216 384.412H206.864C207.486 386.977 209.754 389.622 212.733 390.214" fill="white"/>
<path d="M212.733 401.974H234.347C237.355 401.377 239.59 398.731 240.216 396.17H206.864C207.486 398.732 209.754 401.377 212.733 401.974" fill="white"/>
<path d="M156.5 373.036C157.15 375.567 159.344 378.153 162.354 378.801H171.453L171.917 378.984V401.909H177.599V378.984L178.115 378.801H187.221C190.265 378.018 192.412 375.567 193.051 373.036V372.98H156.5V373.036Z" fill="white"/>
<path d="M268.011 315.756L296.4 156.335C323.46 156.335 331.995 159.298 333.227 171.391C333.227 171.391 351.379 164.633 360.535 150.907C324.808 134.377 288.911 133.631 288.911 133.631L267.964 159.106L268.011 159.103L247.065 133.627C247.065 133.627 211.167 134.374 175.445 150.904C184.592 164.63 202.751 171.388 202.751 171.388C203.991 159.294 212.516 156.331 239.394 156.312L268.011 315.756" fill="white"/>
<path d="M268 126.273C296.88 126.053 329.937 130.734 363.776 145.461C368.299 137.332 369.462 133.74 369.462 133.74C332.47 119.127 297.828 114.125 267.996 114C238.166 114.125 203.525 119.127 166.538 133.74C166.538 133.74 168.188 138.165 172.22 145.461C206.053 130.734 239.115 126.053 267.996 126.273H268Z" fill="white"/>
</g>
</g>
<defs>
<filter id="filter0_d_16_14473" x="-0.208984" y="0.172119" width="604.144" height="603.469" filterUnits="userSpaceOnUse" color-interpolation-filters="sRGB">
<feFlood flood-opacity="0" result="BackgroundImageFix"/>
<feColorMatrix in="SourceAlpha" type="matrix" values="0 0 0 0 0 0 0 0 0 0 0 0 0 0 0 0 0 0 127 0" result="hardAlpha"/>
<feOffset dx="38" dy="40"/>
<feGaussianBlur stdDeviation="15"/>
<feComposite in2="hardAlpha" operator="out"/>
<feColorMatrix type="matrix" values="0 0 0 0 0.483333 0 0 0 0 0.483333 0 0 0 0 0.483333 0 0 0 0.2 0"/>
<feBlend mode="normal" in2="BackgroundImageFix" result="effect1_dropShadow_16_14473"/>
<feBlend mode="normal" in="SourceGraphic" in2="effect1_dropShadow_16_14473" result="shape"/>
</filter>
<clipPath id="clip0_16_14473">
<rect y="0.296387" width="536" height="533" rx="266.5" fill="white"/>
</clipPath>
<clipPath id="clip1_16_14473">
<rect width="223" height="288" fill="white" transform="translate(156.5 114)"/>
</clipPath>
</defs>
</svg>
