<svg width="333" height="332" viewBox="0 0 333 332" fill="none" xmlns="http://www.w3.org/2000/svg">
<circle cx="166.417" cy="166.365" r="165.635" fill="#345E9D"/>
<mask id="mask0_26_124" style="mask-type:alpha" maskUnits="userSpaceOnUse" x="153" y="118" width="102" height="103">
<circle cx="203.836" cy="169.684" r="50.7705" transform="rotate(45 203.836 169.684)" fill="#C4C4C4"/>
</mask>
<g mask="url(#mask0_26_124)">
<g clip-path="url(#clip0_26_124)">
<path d="M140.135 114.42L169.932 113.986L220.128 158.515L289.778 157.501L290.437 202.751L220.787 203.766L171.909 249.737L142.112 250.171L140.135 114.42Z" fill="white"/>
<path d="M140.135 114.42L158.2 114.157L218.209 167.443L289.908 166.399L290.308 193.854L218.609 194.898L160.176 249.908L142.112 250.171L140.135 114.42Z" fill="#007847"/>
<path d="M140.376 130.944L197.738 181.471L141.871 233.647L140.376 130.944Z" fill="#FFB915"/>
<path d="M140.531 141.621L185.819 181.645L141.716 222.97L140.531 141.621Z" fill="black"/>
</g>
<path d="M221.295 158.542L169.62 113.673L289.258 111.931L289.922 157.542L221.295 158.542Z" fill="#BF0A30"/>
<path d="M221.806 203.39L171.459 249.744L291.096 248.002L290.432 202.391L221.806 203.39Z" fill="#003399"/>
</g>
<path d="M118.772 219.95C148.366 220.073 172.257 196.181 172.133 166.587C172.009 136.992 147.918 112.902 118.324 112.779C88.7295 112.657 64.8388 136.548 64.9626 166.142C65.0863 195.737 89.1776 219.827 118.772 219.95Z" fill="#003399"/>
<path d="M143.721 141.212L142.156 144.363L144.534 146.741L141.111 146.2L139.676 149.22L139.136 145.797L135.713 145.257L138.733 143.822L138.193 140.399L140.571 142.777L143.721 141.212ZM129.479 132.996L127.913 136.147L130.291 138.525L126.999 137.853L125.434 141.004L124.893 137.581L121.47 137.041L124.621 135.475L123.95 132.183L126.328 134.561L129.479 132.996ZM113.034 133.059L111.467 135.946L113.977 138.457L110.554 137.916L109.12 140.936L108.579 137.513L105.156 136.973L108.176 135.538L107.636 132.115L110.014 134.493L113.034 133.059ZM151.938 155.455L150.372 158.606L152.75 160.984L149.327 160.443L147.893 163.463L147.352 160.04L143.929 159.5L146.949 158.065L146.409 154.642L148.787 157.02L151.938 155.455ZM152.553 176.77L149.393 176.231L147.695 179.25L147.287 175.959L143.864 175.418L146.752 173.852L146.343 170.561L148.721 172.939L151.872 171.373L150.175 174.392L152.553 176.77ZM144.587 191.077L141.164 190.537L139.598 193.688L139.058 190.265L135.766 189.593L138.786 188.159L138.246 184.736L140.624 187.114L143.644 185.679L142.209 188.699L144.587 191.077ZM125.949 201.525L125.408 198.102L121.985 197.561L125.005 196.127L124.465 192.704L126.843 195.082L129.994 193.516L128.428 196.667L130.806 199.045L127.383 198.505L125.949 201.525ZM91.6937 189.805L94.5815 188.238L94.1732 184.947L96.5512 187.325L99.57 185.627L98.0044 188.778L100.382 191.156L97.2227 190.617L95.525 193.636L95.1166 190.345L91.6937 189.805ZM83.4776 175.562L86.3654 173.995L85.957 170.704L88.335 173.082L91.2229 171.516L89.7883 174.535L92.1663 176.913L88.7434 176.373L87.3088 179.393L86.6373 176.101L83.4776 175.562ZM109.372 201.456L108.963 198.165L105.54 197.624L108.691 196.059L108.02 192.767L110.398 195.145L113.549 193.579L111.851 196.598L114.361 199.108L111.069 198.437L109.372 201.456ZM93.7249 140.477L96.1029 142.855L99.2538 141.29L97.6882 144.441L100.066 146.819L96.6434 146.278L95.2088 149.298L94.6683 145.875L91.2454 145.335L94.2654 143.9L93.7249 140.477ZM83.4085 158.985L86.5595 157.419L85.888 154.127L88.3981 156.637L91.417 154.94L89.8513 158.09L92.2294 160.468L88.9375 159.797L87.3719 162.948L86.8314 159.525L83.4085 158.985Z" fill="#FFCC00"/>
<defs>
<clipPath id="clip0_26_124">
<rect width="149" height="135.766" fill="white" transform="translate(140.135 114.42) rotate(-0.834208)"/>
</clipPath>
</defs>
</svg>
