<svg width="249" height="249" viewBox="0 0 249 249" fill="none" xmlns="http://www.w3.org/2000/svg">
<path d="M248.76 124.847C248.76 193.247 193.16 248.847 124.76 248.847C56.3603 248.847 0.760254 193.247 0.760254 124.847C0.760254 56.4472 56.3603 0.847168 124.76 0.847168C193.16 0.847168 248.76 56.4472 248.76 124.847ZM171.06 152.447C171.06 126.447 143.26 119.047 131.26 115.647C108.56 109.347 106.66 101.147 106.96 96.9472C107.76 86.7472 118.96 84.2472 129.36 86.4472C137.56 88.2472 145.96 93.0472 150.66 96.7472L165.56 79.3472C158.26 74.3472 148.86 67.8472 135.16 65.2472V48.3472H113.46V64.6472C92.4603 66.2472 78.4603 79.4472 78.4603 97.5472C78.4603 115.247 91.2603 123.547 104.06 129.747C114.76 134.847 144.56 140.147 142.86 153.647C141.96 160.947 134.16 166.347 121.26 164.747C110.06 163.347 98.0603 153.947 98.0603 153.947L81.6603 170.247C91.5603 178.247 102.06 183.247 113.46 185.547V201.447H135.16V186.347C155.86 184.047 171.06 169.947 171.06 152.447Z" fill="url(#paint0_linear_190_163)"/>
<defs>
<linearGradient id="paint0_linear_190_163" x1="-202.823" y1="-196.951" x2="484.418" y2="340.751" gradientUnits="userSpaceOnUse">
<stop stop-color="#651FFF"/>
<stop offset="1" stop-color="#8AFBA3"/>
</linearGradient>
</defs>
</svg>
