<svg width="537" height="534" viewBox="0 0 537 534" fill="none" xmlns="http://www.w3.org/2000/svg">
<rect x="0.0356445" y="0.729492" width="536" height="533" rx="266.5" fill="white"/>
<path d="M161.839 408.627C161.839 409.136 161.413 409.55 160.904 409.55H142.883C143.333 414.002 146.683 418.063 151.396 418.063C154.616 418.063 157.008 416.832 158.808 414.263C159.068 413.908 159.459 413.683 159.956 413.896C160.229 414.014 160.418 414.263 160.466 414.547C160.513 414.843 160.43 415.009 160.347 415.174C158.536 418.336 154.924 419.887 151.384 419.887C145.322 419.887 141 414.464 141 408.662C141 402.86 145.322 397.438 151.384 397.438C157.446 397.426 161.827 402.837 161.839 408.627V408.627ZM159.909 407.751C159.518 403.299 156.108 399.237 151.396 399.237C146.683 399.237 143.333 403.299 142.883 407.751H159.909ZM183.708 397.876C184.229 397.876 184.608 398.326 184.608 398.776C184.608 399.296 184.217 399.675 183.708 399.675H178.877V418.632C178.877 419.082 178.487 419.532 177.977 419.532C177.457 419.532 177.078 419.082 177.078 418.632V399.675H172.436C171.915 399.675 171.536 399.285 171.536 398.776C171.536 398.326 171.927 397.876 172.436 397.876H177.078V390.937C177.078 390.499 177.374 390.097 177.8 390.025C178.404 389.931 178.877 390.345 178.877 390.914V397.876H183.708ZM213.179 407.04V418.525C213.179 419.046 212.729 419.425 212.279 419.425C211.758 419.425 211.379 419.034 211.379 418.525V407.04C211.379 403.168 209.189 399.296 204.867 399.296C199.326 399.296 196.934 404.139 197.254 409.1C197.254 409.231 197.313 409.811 197.313 409.87V418.49C197.313 418.928 197.017 419.33 196.591 419.401C195.987 419.496 195.513 419.082 195.513 418.513V380.79C195.513 380.34 195.904 379.89 196.413 379.89C196.934 379.89 197.313 380.34 197.313 380.79V402.138C198.864 399.368 201.635 397.497 204.855 397.497C210.148 397.497 213.179 402.138 213.179 407.04V407.04ZM245.491 408.627C245.491 409.136 245.065 409.55 244.556 409.55H226.523C226.973 414.002 230.324 418.063 235.036 418.063C238.257 418.063 240.649 416.832 242.448 414.263C242.709 413.908 243.1 413.683 243.597 413.896C243.869 414.014 244.059 414.263 244.106 414.547C244.153 414.843 244.07 415.009 243.988 415.174C242.176 418.336 238.565 419.887 235.024 419.887C228.962 419.887 224.64 414.464 224.64 408.662C224.64 402.86 228.962 397.438 235.024 397.438C241.098 397.426 245.479 402.837 245.491 408.627V408.627ZM243.549 407.751C243.159 403.299 239.749 399.237 235.036 399.237C230.324 399.237 226.973 403.299 226.523 407.751H243.549ZM267.609 398.716C267.609 399.296 267.289 399.616 266.768 399.687C261.476 400.457 259.096 404.779 259.096 409.811V418.431C259.096 418.869 258.8 419.271 258.374 419.342C257.77 419.437 257.296 419.023 257.296 418.454V398.811C257.296 398.373 257.592 397.97 258.018 397.899C258.622 397.805 259.096 398.219 259.096 398.787V402.789C260.576 400.279 263.548 397.887 266.638 397.887C267.088 397.876 267.609 398.207 267.609 398.716V398.716ZM297.21 408.627C297.21 409.136 296.784 409.55 296.275 409.55H278.254C278.704 414.002 282.054 418.063 286.767 418.063C289.987 418.063 292.379 416.832 294.179 414.263C294.439 413.908 294.83 413.683 295.327 413.896C295.6 414.014 295.789 414.263 295.837 414.547C295.884 414.843 295.801 415.009 295.718 415.174C293.907 418.336 290.295 419.887 286.755 419.887C280.693 419.887 276.371 414.464 276.371 408.662C276.371 402.86 280.693 397.438 286.755 397.438C292.817 397.426 297.198 402.837 297.21 408.627V408.627ZM295.28 407.751C294.889 403.299 291.479 399.237 286.767 399.237C282.054 399.237 278.704 403.299 278.254 407.751H295.28V407.751ZM326.302 398.941V418.632C326.302 419.153 325.852 419.532 325.402 419.532C324.881 419.532 324.502 419.141 324.502 418.632V414.89C323.022 417.862 320.37 419.982 317.019 419.982C311.667 419.982 308.695 415.34 308.695 410.438V398.894C308.695 398.444 309.086 397.994 309.595 397.994C310.116 397.994 310.495 398.444 310.495 398.894V410.438C310.495 414.31 312.685 418.182 317.007 418.182C323.069 418.182 324.49 412.51 324.49 406.247V398.894C324.49 398.373 325.011 397.84 325.651 398.03C326.041 398.16 326.302 398.539 326.302 398.941V398.941ZM371.887 406.969V418.513C371.887 419.034 371.437 419.413 370.987 419.413C370.466 419.413 370.087 419.023 370.087 418.513V406.969C370.087 403.097 367.897 399.296 363.575 399.296C358.152 399.296 356.092 405.098 356.092 409.609V418.513C356.092 419.034 355.642 419.413 355.192 419.413C354.671 419.413 354.292 419.023 354.292 418.513V406.969C354.292 403.097 352.102 399.296 347.78 399.296C342.298 399.296 340.037 403.618 340.238 409.361C340.238 409.491 340.297 409.752 340.238 409.811V418.49C340.238 418.928 339.942 419.33 339.504 419.401C338.9 419.496 338.426 419.082 338.426 418.513V398.811C338.426 398.373 338.722 397.97 339.149 397.899C339.752 397.805 340.226 398.219 340.226 398.787V402.079C341.777 399.308 344.548 397.497 347.768 397.497C351.439 397.497 354.281 399.817 355.441 403.239C356.921 399.889 359.822 397.497 363.563 397.497C368.856 397.497 371.887 402.067 371.887 406.969" fill="#3C3C3B"/>
<g opacity="0.6">
<path opacity="0.6" d="M259.423 184.62L187.861 217.287L259.423 259.723L330.956 217.287L259.423 184.62Z" fill="#010101"/>
</g>
<g opacity="0.45">
<path opacity="0.45" d="M187.861 217.287L259.423 259.723V98.1101L187.861 217.287Z" fill="#010101"/>
</g>
<g opacity="0.8">
<path opacity="0.8" d="M259.423 98.1101V259.723L330.956 217.287L259.423 98.1101Z" fill="#010101"/>
</g>
<g opacity="0.45">
<path opacity="0.45" d="M187.861 230.896L259.423 332.087V273.332L187.861 230.896Z" fill="#010101"/>
</g>
<g opacity="0.8">
<path opacity="0.8" d="M259.423 273.332V332.087L331.012 230.896L259.423 273.332Z" fill="#010101"/>
</g>
</svg>
