<svg width="260" height="263" viewBox="0 0 260 263" fill="none" xmlns="http://www.w3.org/2000/svg">
<rect width="260" height="263" rx="130" fill="url(#paint0_linear_15_14454)"/>
<path d="M27.5381 148.001L140.742 150.304C141.533 147.586 141.939 144.677 142.152 141.947L26.248 139.59C26.4213 142.327 26.7862 145.251 27.5381 148.001V148.001ZM34.9383 165.103L133.1 167.1C134.855 164.402 136.61 161.703 137.788 158.811L30.3697 156.625C31.6989 159.569 33.2222 162.334 34.9383 165.103ZM52.9454 182.422L115.044 183.685C119.11 181.398 122.795 178.557 126.096 175.525L42.0127 173.814C45.2691 176.979 48.9138 179.788 52.9454 182.422ZM115.515 90.5494L53.6101 89.29C49.5433 91.5769 45.8583 94.4184 42.5577 97.45L126.448 99.1567C123.193 95.8095 119.548 93.0011 115.515 90.5494Z" fill="white"/>
<path d="M30.3657 156.448L137.987 158.638C139.164 155.927 140.148 153.212 140.94 150.311L27.5325 148.003C28.2831 150.936 29.228 153.69 30.3657 156.448ZM42.0098 173.643L125.908 175.35C128.627 172.853 130.962 169.983 133.104 167.109L34.9334 165.111C37.0342 168.071 39.3278 171.036 42.0098 173.643ZM83.9345 191.453C95.3139 191.685 105.944 188.802 115.046 183.699L52.9423 182.435C61.7766 187.903 72.3623 191.218 83.9345 191.453V191.453ZM27.7146 122.48L140.929 124.783C140.179 121.851 139.235 118.914 138.096 116.338L30.6675 114.152C29.4907 116.863 28.5069 119.578 27.7146 122.48V122.48ZM26.0806 135.21C26.0701 136.668 26.0597 138.127 26.2435 139.407L142.351 141.77C142.555 140.315 142.564 139.039 142.574 137.581C142.585 136.122 142.595 134.664 142.411 133.383L26.3033 131.021C26.1001 132.475 26.091 133.752 26.0806 135.21ZM42.5535 97.4365C39.8351 99.9339 37.4999 102.804 35.3575 105.678L133.528 107.675C131.429 104.533 129.134 101.751 126.452 99.1438L42.5535 97.4365ZM84.7202 81.3371C73.3409 81.1056 62.7109 83.989 53.6083 89.0916L115.712 90.3553C106.685 84.8838 96.0996 81.5687 84.7202 81.3371Z" fill="#BF0A30"/>
<path d="M26.3439 130.925L142.394 133.275C142.222 130.37 141.664 127.639 141.105 124.908L27.7532 122.614C26.9626 125.317 26.5575 128.029 26.3439 130.925V130.925ZM30.7059 114.152L138.274 116.33C136.946 113.402 135.424 110.47 133.707 107.897L35.3923 105.907C33.6391 108.409 32.0761 111.279 30.7059 114.152V114.152Z" fill="white"/>
<path d="M84.565 81.4427C52.3342 80.7273 26.1186 104.719 25.9198 135.114C25.9103 136.57 25.9007 138.026 26.0842 139.486L84.177 140.776L84.565 81.4427Z" fill="#002868"/>
<path d="M29.7132 116.268C29.712 116.45 29.5179 116.627 29.5167 116.809L29.7132 116.268ZM29.1223 118.075C28.9257 118.617 28.7292 119.158 28.5314 119.882L29.1223 118.075ZM31.7053 136.336L29.9754 135.206L28.2313 136.259L29.0152 134.456L27.2865 133.143L29.4095 133.191L30.0004 131.383L30.7605 133.221L32.8836 133.268L31.1382 134.503L31.7053 136.336ZM39.672 128.321L37.9433 127.009L36.198 128.244L36.7901 126.255L35.0602 125.124L37.1832 125.171L37.9671 123.368L38.5343 125.201L40.6573 125.248L38.9131 126.302L39.672 128.321ZM39.2156 109.561L39.9746 111.58L38.2459 110.268L36.5005 111.503L37.0926 109.514L35.3627 108.383L37.4858 108.43L38.2697 106.627L38.8368 108.46L40.9598 108.507L39.2156 109.561ZM47.7246 136.692L45.9947 135.561L44.2505 136.615L44.8415 134.807L43.1128 133.495L45.4288 133.546L46.0197 131.739L46.5868 133.572L48.7099 133.619L46.9645 134.855L47.7246 136.692ZM47.8472 117.944L47.0716 118.473L47.8317 120.311L46.1019 119.18L44.3577 120.233L44.9486 118.426L44.1802 117.863L43.2199 117.113L45.5359 117.165L46.1269 115.358L46.694 117.191L48.817 117.238L47.8472 117.944ZM47.1835 101.364L47.9436 103.201L46.2138 102.071L44.4696 103.124L45.0605 101.317L43.3318 100.004L45.6478 100.056L46.2388 98.2483L46.8059 100.081L48.9289 100.128L47.1835 101.364ZM55.4947 129.219L53.7649 128.088L52.0207 129.141L52.8046 127.338L51.0759 126.026L53.1989 126.073L53.7899 124.266L54.55 126.103L56.673 126.15L54.9276 127.386L55.4947 129.219ZM55.2302 110.645L55.7973 112.478L54.0674 111.347L52.3232 112.4L53.1071 110.597L51.3784 109.285L53.5015 109.332L54.0924 107.525L54.8525 109.362L56.9755 109.409L55.2302 110.645ZM55.5339 93.7216L56.101 95.5546L54.3711 94.4239L52.6269 95.4774L53.2178 93.6702L51.6821 92.3618L53.8052 92.4089L54.3961 90.6016L54.9632 92.4346L57.0862 92.4817L55.5339 93.7216ZM63.5509 137.043L61.821 135.912L60.2698 136.97L60.8607 135.163L59.132 133.85L61.2551 133.897L61.846 132.09L62.6061 133.927L64.7291 133.975L62.9838 135.21L63.5509 137.043ZM63.8665 118.3L63.0909 118.829L63.658 120.662L61.9281 119.531L60.377 120.589L60.9679 118.782L60.1994 118.219L59.2392 117.469L61.3622 117.516L61.9531 115.709L62.7132 117.546L64.8363 117.593L63.8665 118.3ZM63.2028 101.72L63.7699 103.553L62.04 102.422L60.4889 103.48L61.0798 101.672L59.3511 100.36L61.4741 100.407L62.065 98.5996L62.8251 100.437L64.9482 100.484L63.2028 101.72ZM71.514 129.574L69.7841 128.444L68.04 129.497L68.6309 127.69L66.9022 126.377L69.2182 126.429L69.8091 124.621L70.3762 126.454L72.4993 126.501L70.7539 127.737L71.514 129.574ZM71.0564 110.996L71.8165 112.833L70.0867 111.703L68.3425 112.756L68.9334 110.949L67.2047 109.636L69.3277 109.683L70.1117 107.88L70.6788 109.713L72.8018 109.76L71.0564 110.996ZM71.3602 94.0729L72.1203 95.9102L70.3904 94.7795L68.6462 95.833L69.2371 94.0258L67.5084 92.7131L69.6315 92.7602L70.4154 90.9572L70.9825 92.7902L73.1055 92.8373L71.3602 94.0729ZM79.5702 137.399L77.8403 136.268L76.0961 137.322L76.88 135.519L75.1513 134.206L77.2744 134.253L77.8653 132.446L78.4324 134.279L80.5554 134.326L79.0031 135.566L79.5702 137.399ZM79.8858 118.656L79.1102 119.184L79.6773 121.017L77.9474 119.887L76.2032 120.94L76.9872 119.137L76.2187 118.574L75.2585 117.825L77.3815 117.872L77.9724 116.065L78.5395 117.898L80.6626 117.945L79.8858 118.656ZM79.2221 102.075L79.7892 103.908L78.0593 102.778L76.3151 103.831L77.0991 102.028L75.3704 100.715L77.4934 100.762L78.0843 98.9552L78.6514 100.788L80.7745 100.835L79.2221 102.075ZM79.3316 85.3299L79.8987 87.1628L78.1688 86.0322L76.4247 87.0857L77.2086 85.2827L75.4799 83.9701L77.6029 84.0172L78.1938 82.2099L78.7609 84.0429L80.884 84.09L79.3316 85.3299ZM62.1496 85.6766L63.8794 86.8072L63.3123 84.9743L63.5065 84.7965C62.5391 85.1391 61.7647 85.486 60.7973 85.8286L60.4042 86.9121L62.1496 85.6766Z" fill="white"/>
<path d="M62.0641 98.6547L61.4731 100.462L59.3501 100.415L61.0788 101.728L60.4879 103.535L62.0391 102.477L63.769 103.608L63.2019 101.775L64.9473 100.539L62.8242 100.492L62.0641 98.6547ZM61.9522 115.765L61.3612 117.572L59.2382 117.525L60.1984 118.275L60.9669 118.838L60.376 120.645L61.9272 119.588L63.6571 120.718L63.09 118.885L63.8656 118.356L64.8354 117.65L62.7123 117.602L61.9522 115.765ZM62.6052 133.985L61.845 132.147L61.2541 133.955L59.131 133.907L60.8598 135.22L60.2688 137.028L61.82 135.97L63.55 137.1L62.9828 135.267L64.7282 134.032L62.6052 133.985ZM46.2374 98.3034L45.6465 100.111L43.3304 100.059L45.0591 101.372L44.4682 103.179L46.2124 102.126L47.9424 103.257L47.1822 101.419L48.9276 100.184L46.8046 100.136L46.2374 98.3034ZM46.1255 115.414L45.5346 117.221L43.2185 117.17L44.1788 117.919L44.9472 118.482L44.3563 120.29L46.1005 119.236L47.8305 120.367L47.0703 118.53L47.8459 118.001L48.8157 117.294L46.6926 117.247L46.1255 115.414ZM46.5855 133.629L46.0184 131.796L45.4275 133.603L43.1114 133.552L44.8401 134.865L44.2492 136.672L45.9934 135.618L47.7233 136.749L46.9632 134.912L48.7086 133.676L46.5855 133.629ZM28.3367 119.934C28.5297 119.938 28.5297 119.938 28.3367 119.934V119.934ZM30.1059 115.058L29.7115 116.324C29.9069 115.964 30.1023 115.604 30.1059 115.058Z" fill="white"/>
<path d="M31.8125 119.955L31.2466 117.94L32.0221 117.411L32.9919 116.704L30.8689 116.657L30.3018 114.824L29.7156 115.904L29.519 116.445C29.3237 116.805 29.3213 117.169 29.1259 117.529L28.535 119.336L28.5338 119.518L30.278 118.465L31.8125 119.955V119.955ZM30.7605 133.221L30.0004 131.383L29.4095 133.191L27.2865 133.143L29.0152 134.456L28.2313 136.259L29.9754 135.206L31.7053 136.336L31.1382 134.503L32.8836 133.268L30.7605 133.221ZM70.1117 107.88L69.3277 109.683L67.2047 109.636L68.9334 110.949L68.3425 112.756L70.0867 111.703L71.8165 112.833L71.0564 110.996L72.8018 109.76L70.6788 109.713L70.1117 107.88ZM70.3762 126.454L69.8091 124.621L69.2182 126.429L66.9022 126.377L68.6309 127.69L68.04 129.497L69.7841 128.444L71.514 129.574L70.7539 127.737L72.4993 126.501L70.3762 126.454ZM54.0924 107.525L53.5015 109.332L51.3784 109.285L53.1071 110.597L52.3232 112.4L54.0674 111.347L55.7973 112.478L55.2302 110.645L56.9755 109.409L54.8525 109.362L54.0924 107.525ZM54.55 126.103L53.7899 124.266L53.1989 126.073L51.0759 126.026L52.8046 127.338L52.0207 129.141L53.7649 128.088L55.4947 129.219L54.9276 127.386L56.673 126.15L54.55 126.103ZM38.2697 106.627L37.4858 108.43L35.3627 108.383L37.0926 109.514L36.5005 111.503L38.2459 110.268L39.9746 111.58L39.2156 109.561L40.9598 108.507L38.8368 108.46L38.2697 106.627ZM38.5343 125.201L37.9671 123.368L37.1832 125.171L35.0602 125.124L36.7901 126.255L36.198 128.244L37.9433 127.009L39.672 128.321L38.9131 126.302L40.6573 125.248L38.5343 125.201ZM78.0843 98.9552L77.4934 100.762L75.3704 100.715L77.0991 102.028L76.3151 103.831L78.0593 102.778L79.7892 103.908L79.2221 102.075L80.7745 100.835L78.6514 100.788L78.0843 98.9552ZM54.3961 90.6016L53.8052 92.4089L51.6821 92.3618L53.2178 93.6702L52.6269 95.4774L54.3711 94.4239L56.101 95.5546L55.5339 93.7216L57.0862 92.4817L54.9632 92.4346L54.3961 90.6016ZM70.4154 90.9572L69.6315 92.7602L67.5084 92.7131L69.2371 94.0258L68.6462 95.833L70.3904 94.7795L72.1203 95.9102L71.3602 94.0729L73.1055 92.8373L70.9825 92.7902L70.4154 90.9572ZM78.1938 82.2099L77.6029 84.0172L75.4799 83.9701L77.2086 85.2827L76.4247 87.0857L78.1688 86.0322L79.8987 87.1628L79.3316 85.3299L80.884 84.09L78.7609 84.0429L78.1938 82.2099ZM77.9724 116.065L77.3815 117.872L75.2585 117.825L76.2187 118.574L76.9872 119.137L76.2032 120.94L77.9474 119.887L79.6773 121.017L79.1102 119.184L79.8858 118.656L80.6626 117.945L78.5395 117.898L77.9724 116.065ZM78.4324 134.279L77.8653 132.446L77.2744 134.253L75.1513 134.206L76.88 135.519L76.0961 137.322L77.8403 136.268L79.5702 137.399L79.0031 135.566L80.5554 134.326L78.4324 134.279Z" fill="white"/>
<g clip-path="url(#clip0_15_14454)">
<rect x="130" y="93.9204" width="87" height="87" rx="43.5" fill="#BF0A30"/>
<path fill-rule="evenodd" clip-rule="evenodd" d="M173.5 85.2817H151.829V126.234H125.681L125.681 142.703H151.829V180.921H173.5V142.703L221.319 142.703V126.234L173.5 126.234V85.2817Z" fill="white"/>
</g>
<defs>
<linearGradient id="paint0_linear_15_14454" x1="-60.5536" y1="-28.6696" x2="454.951" y2="424.939" gradientUnits="userSpaceOnUse">
<stop stop-color="#FF4141"/>
<stop offset="1" stop-color="#4F58FC"/>
</linearGradient>
<clipPath id="clip0_15_14454">
<rect x="130" y="93.9204" width="87" height="87" rx="43.5" fill="white"/>
</clipPath>
</defs>
</svg>
