<svg width="326" height="324" viewBox="0 0 326 324" fill="none" xmlns="http://www.w3.org/2000/svg">
<rect x="0.5" width="325" height="324" rx="162" fill="#0167AF"/>
<path d="M194.05 224.143C228.7 231.291 262.201 209.161 268.875 174.715C275.549 140.269 252.87 106.551 218.219 99.4037C183.569 92.2565 150.068 114.386 143.394 148.832C136.72 183.278 159.399 216.996 194.05 224.143Z" fill="#FECC13"/>
<path fill-rule="evenodd" clip-rule="evenodd" d="M172.365 107.132C158.27 115.632 147.593 129.592 143.678 146.802L172.365 146.802V107.132ZM143.128 172.358C146.378 190.06 157.042 205.795 172.365 215.468V172.358H143.128ZM205.992 225.473C236.036 225.934 262.839 205.123 268.732 174.711C268.884 173.926 269.021 173.141 269.142 172.358L205.992 172.358V225.473ZM267.891 146.802L205.992 146.802V98.0659C209.977 98.1272 214.019 98.5626 218.076 99.3996C243.128 104.567 261.923 123.623 267.891 146.802Z" fill="#0167AF"/>
<path d="M59.4393 175.108L182.305 177.501C183.165 174.403 183.608 171.09 183.841 167.98L58.0453 165.529C58.2314 168.647 58.6253 171.977 59.4393 175.108V175.108ZM67.4585 194.574L173.997 196.65C175.905 193.572 177.812 190.495 179.092 187.197L62.5063 184.926C63.9467 188.277 65.598 191.423 67.4585 194.574ZM86.9898 214.265L154.388 215.578C158.803 212.965 162.805 209.72 166.39 206.26L75.1303 204.483C78.6623 208.081 82.616 211.273 86.9898 214.265ZM154.969 109.486L87.7805 108.177C83.3649 110.791 79.3632 114.035 75.7786 117.495L166.829 119.268C163.298 115.462 159.345 112.271 154.969 109.486Z" fill="white"/>
<path d="M62.5075 184.718L179.303 186.993C180.582 183.904 181.652 180.81 182.514 177.505L59.439 175.107C60.2515 178.445 61.2748 181.58 62.5075 184.718ZM75.1315 204.275L166.182 206.048C169.134 203.199 171.67 199.926 173.997 196.649L67.4582 194.574C69.7358 197.94 72.2228 201.311 75.1315 204.275ZM120.617 224.471C132.967 224.712 144.505 221.406 154.387 215.577L86.9895 214.265C96.5729 220.473 108.059 224.226 120.617 224.471V224.471ZM59.6556 146.042L182.521 148.435C181.708 145.097 180.687 141.755 179.452 138.824L62.8664 136.553C61.5874 139.643 60.5176 142.737 59.6556 146.042V146.042ZM57.8728 160.542C57.8604 162.203 57.848 163.864 58.0465 165.321L184.051 167.776C184.273 166.119 184.284 164.665 184.296 163.005C184.309 161.344 184.321 159.683 184.123 158.226L58.1177 155.771C57.896 157.428 57.8852 158.881 57.8728 160.542ZM75.7783 117.494C72.8263 120.344 70.2898 123.617 67.9626 126.893L174.502 128.969C172.226 125.395 169.737 122.232 166.828 119.268L75.7783 117.494ZM121.552 99.0756C109.203 98.835 97.6642 102.14 87.7817 107.969L155.18 109.282C145.387 103.07 133.901 99.3162 121.552 99.0756Z" fill="#BF0A30"/>
<path d="M58.1184 155.772L184.123 158.226C183.939 154.9 183.334 151.774 182.729 148.648L59.6548 146.25C58.7943 149.348 58.3525 152.454 58.1184 155.772V155.772ZM62.8671 136.554L179.662 138.829C178.222 135.479 176.572 132.124 174.71 129.181L67.9618 127.102C66.0563 129.971 64.3571 133.261 62.8671 136.554V136.554Z" fill="white"/>
<path d="M121.343 99.0717C86.388 98.3908 57.9222 125.867 57.6638 160.538C57.6514 162.199 57.639 163.86 57.836 165.525L120.838 166.752L121.343 99.0717Z" fill="#002868"/>
<path d="M61.802 139.024C61.8004 139.232 61.5895 139.435 61.588 139.643L61.802 139.024ZM61.1585 141.088C60.9446 141.707 60.7306 142.325 60.5151 143.152L61.1585 141.088ZM63.9342 161.906L62.0596 160.623L60.1666 161.832L61.0193 159.773L59.1463 158.283L61.4487 158.328L62.0921 156.264L62.9139 158.356L65.2163 158.401L63.3217 159.817L63.9342 161.906ZM72.5855 152.731L70.7126 151.241L68.8179 152.657L69.4629 150.386L67.5884 149.103L69.8908 149.148L70.7435 147.088L71.356 149.177L73.6584 149.222L71.7653 150.431L72.5855 152.731ZM72.117 131.335L72.9372 133.635L71.0642 132.145L69.1696 133.561L69.8145 131.29L67.94 130.008L70.2425 130.052L71.0952 127.993L71.7076 130.081L74.01 130.126L72.117 131.335ZM81.3069 162.244L79.4324 160.962L77.5393 162.171L78.1827 160.107L76.3098 158.617L78.8215 158.666L79.4649 156.602L80.0774 158.69L82.3798 158.735L80.4851 160.152L81.3069 162.244ZM81.4663 140.861L80.6244 141.467L81.4462 143.559L79.5717 142.277L77.6786 143.486L78.322 141.422L77.4894 140.783L76.449 139.932L78.9608 139.981L79.6042 137.917L80.2166 140.006L82.519 140.051L81.4663 140.861ZM80.7699 121.952L81.5916 124.044L79.7171 122.762L77.824 123.971L78.4674 121.907L76.5945 120.417L79.1062 120.466L79.7496 118.402L80.3621 120.491L82.6645 120.535L80.7699 121.952ZM89.7443 153.688L87.8698 152.405L85.9767 153.614L86.8294 151.555L84.9565 150.065L87.2589 150.109L87.9023 148.046L88.7241 150.138L91.0265 150.183L89.1319 151.599L89.7443 153.688ZM89.4835 132.504L90.096 134.592L88.2215 133.31L86.3284 134.518L87.1811 132.459L85.3081 130.969L87.6106 131.014L88.254 128.95L89.0757 131.042L91.3781 131.087L89.4835 132.504ZM89.8367 113.2L90.4492 115.288L88.5747 114.006L86.6816 115.215L87.325 113.151L85.6614 111.665L87.9638 111.71L88.6072 109.646L89.2196 111.735L91.522 111.779L89.8367 113.2ZM98.4704 162.579L96.5958 161.296L94.9121 162.509L95.5555 160.445L93.6825 158.955L95.9849 159L96.6283 156.936L97.4501 159.029L99.7525 159.074L97.8579 160.49L98.4704 162.579ZM98.839 141.199L97.9972 141.805L98.6096 143.894L96.7351 142.611L95.0513 143.824L95.6947 141.761L94.8621 141.122L93.8218 140.271L96.1242 140.316L96.7676 138.252L97.5894 140.344L99.8918 140.389L98.839 141.199ZM98.1426 122.29L98.7551 124.379L96.8806 123.096L95.1968 124.309L95.8402 122.245L93.9672 120.756L96.2696 120.8L96.913 118.737L97.7348 120.829L100.037 120.874L98.1426 122.29ZM107.117 154.026L105.243 152.744L103.349 153.953L103.993 151.889L102.12 150.399L104.632 150.448L105.275 148.384L105.888 150.472L108.19 150.517L106.295 151.934L107.117 154.026ZM106.647 132.838L107.469 134.93L105.594 133.648L103.701 134.857L104.345 132.793L102.472 131.303L104.774 131.348L105.627 129.288L106.239 131.377L108.542 131.421L106.647 132.838ZM107 113.534L107.822 115.627L105.947 114.344L104.054 115.553L104.698 113.49L102.825 112L105.127 112.044L105.98 109.985L106.592 112.073L108.895 112.118L107 113.534ZM115.843 162.917L113.969 161.635L112.076 162.844L112.928 160.784L111.055 159.294L113.358 159.339L114.001 157.275L114.614 159.363L116.916 159.408L115.231 160.829L115.843 162.917ZM116.212 141.537L115.37 142.144L115.982 144.232L114.108 142.95L112.215 144.159L113.068 142.099L112.235 141.46L111.195 140.609L113.497 140.654L114.14 138.59L114.753 140.678L117.055 140.723L116.212 141.537ZM115.515 122.629L116.128 124.717L114.253 123.435L112.36 124.644L113.213 122.584L111.34 121.094L113.642 121.139L114.286 119.075L114.898 121.163L117.201 121.208L115.515 122.629ZM115.658 103.529L116.27 105.617L114.396 104.335L112.503 105.544L113.355 103.484L111.482 101.994L113.785 102.039L114.428 99.975L115.041 102.063L117.343 102.108L115.658 103.529ZM97.0229 103.996L98.8974 105.279L98.285 103.19L98.4958 102.987C97.4462 103.382 96.6058 103.781 95.5562 104.175L95.1283 105.413L97.0229 103.996Z" fill="white"/>
<path d="M96.9122 118.737L96.2688 120.801L93.9664 120.756L95.8394 122.246L95.196 124.31L96.8797 123.097L98.7542 124.379L98.1418 122.291L100.036 120.874L97.734 120.829L96.9122 118.737ZM96.7668 138.252L96.1234 140.316L93.8209 140.271L94.8613 141.122L95.6939 141.761L95.0505 143.825L96.7343 142.612L98.6088 143.894L97.9963 141.806L98.8382 141.199L99.8909 140.389L97.5885 140.344L96.7668 138.252ZM97.4493 159.029L96.6275 156.937L95.9841 159.001L93.6817 158.956L95.5546 160.446L94.9112 162.509L96.595 161.296L98.4695 162.579L97.8571 160.49L99.7517 159.074L97.4493 159.029ZM79.7488 118.402L79.1053 120.466L76.5936 120.417L78.4666 121.907L77.8232 123.971L79.7163 122.762L81.5908 124.045L80.769 121.952L82.6636 120.536L80.3612 120.491L79.7488 118.402ZM79.6033 137.918L78.9599 139.981L76.4482 139.933L77.4885 140.783L78.3211 141.422L77.6777 143.486L79.5708 142.277L81.4453 143.56L80.6236 141.467L81.4654 140.861L82.5182 140.051L80.2158 140.006L79.6033 137.918ZM80.0765 158.691L79.464 156.602L78.8206 158.666L76.3089 158.617L78.1819 160.107L77.5385 162.171L79.4316 160.962L81.3061 162.244L80.4843 160.152L82.3789 158.736L80.0765 158.691ZM60.305 143.148C60.5143 143.152 60.5143 143.152 60.305 143.148V143.148ZM62.2305 137.579L61.8011 139.024C62.0135 138.613 62.2259 138.202 62.2305 137.579Z" fill="white"/>
<path d="M64.0734 143.221L63.4625 140.925L64.3044 140.319L65.3571 139.509L63.0547 139.464L62.4423 137.375L61.8051 138.609L61.5911 139.228C61.3787 139.639 61.3756 140.054 61.1632 140.465L60.5198 142.529L60.5182 142.737L62.4113 141.528L64.0734 143.221V143.221ZM62.9139 158.356L62.0921 156.264L61.4487 158.328L59.1463 158.283L61.0193 159.773L60.1666 161.832L62.0596 160.623L63.9342 161.906L63.3217 159.817L65.2163 158.401L62.9139 158.356ZM105.627 129.288L104.774 131.348L102.472 131.303L104.345 132.793L103.701 134.857L105.594 133.648L107.469 134.93L106.647 132.838L108.542 131.421L106.239 131.377L105.627 129.288ZM105.888 150.472L105.275 148.384L104.632 150.448L102.12 150.399L103.993 151.889L103.349 153.953L105.243 152.744L107.117 154.026L106.295 151.934L108.19 150.517L105.888 150.472ZM88.254 128.95L87.6106 131.014L85.3081 130.969L87.1811 132.459L86.3284 134.518L88.2215 133.31L90.096 134.592L89.4835 132.504L91.3781 131.087L89.0757 131.042L88.254 128.95ZM88.7241 150.138L87.9023 148.046L87.2589 150.109L84.9565 150.065L86.8294 151.555L85.9767 153.614L87.8698 152.405L89.7443 153.688L89.1319 151.599L91.0265 150.183L88.7241 150.138ZM71.0952 127.993L70.2425 130.052L67.94 130.008L69.8145 131.29L69.1696 133.561L71.0642 132.145L72.9372 133.635L72.117 131.335L74.01 130.126L71.7076 130.081L71.0952 127.993ZM71.356 149.177L70.7435 147.088L69.8908 149.148L67.5884 149.103L69.4629 150.386L68.8179 152.657L70.7126 151.241L72.5855 152.731L71.7653 150.431L73.6584 149.222L71.356 149.177ZM114.286 119.075L113.642 121.139L111.34 121.094L113.213 122.584L112.36 124.644L114.253 123.435L116.128 124.717L115.515 122.629L117.201 121.208L114.898 121.163L114.286 119.075ZM88.6072 109.646L87.9638 111.71L85.6614 111.665L87.325 113.151L86.6816 115.215L88.5747 114.006L90.4492 115.288L89.8367 113.2L91.522 111.779L89.2196 111.735L88.6072 109.646ZM105.98 109.985L105.127 112.044L102.825 112L104.698 113.49L104.054 115.553L105.947 114.344L107.822 115.627L107 113.534L108.895 112.118L106.592 112.073L105.98 109.985ZM114.428 99.975L113.785 102.039L111.482 101.994L113.355 103.484L112.503 105.544L114.396 104.335L116.27 105.617L115.658 103.529L117.343 102.108L115.041 102.063L114.428 99.975ZM114.14 138.59L113.497 140.654L111.195 140.609L112.235 141.46L113.068 142.099L112.215 144.159L114.108 142.95L115.982 144.232L115.37 142.144L116.212 141.537L117.055 140.723L114.753 140.678L114.14 138.59ZM114.614 159.363L114.001 157.275L113.358 159.339L111.055 159.294L112.928 160.784L112.076 162.844L113.969 161.635L115.843 162.917L115.231 160.829L116.916 159.408L114.614 159.363Z" fill="white"/>
</svg>
