<svg width="326" height="324" viewBox="0 0 326 324" fill="none" xmlns="http://www.w3.org/2000/svg">
<rect x="0.500977" width="325" height="324" rx="162" fill="#0582DB"/>
<path d="M59.4403 175.108L182.305 177.501C183.166 174.403 183.609 171.09 183.842 167.98L58.0463 165.529C58.2324 168.647 58.6263 171.977 59.4403 175.108V175.108ZM67.4595 194.574L173.998 196.65C175.905 193.572 177.812 190.495 179.093 187.197L62.5073 184.926C63.9477 188.277 65.5989 191.423 67.4595 194.574ZM86.9908 214.265L154.389 215.578C158.804 212.965 162.806 209.72 166.391 206.26L75.1313 204.483C78.6632 208.081 82.6169 211.273 86.9908 214.265ZM154.97 109.486L87.7815 108.177C83.3658 110.791 79.3642 114.035 75.7796 117.495L166.83 119.268C163.299 115.462 159.346 112.271 154.97 109.486Z" fill="white"/>
<path d="M62.5084 184.718L179.304 186.993C180.583 183.904 181.652 180.81 182.514 177.505L59.4399 175.107C60.2524 178.445 61.2758 181.58 62.5084 184.718ZM75.1325 204.275L166.183 206.048C169.135 203.199 171.671 199.926 173.998 196.649L67.4591 194.574C69.7368 197.94 72.2238 201.311 75.1325 204.275ZM120.618 224.471C132.968 224.712 144.506 221.406 154.388 215.577L86.9904 214.265C96.5738 220.473 108.06 224.226 120.618 224.471V224.471ZM59.6566 146.042L182.522 148.435C181.709 145.097 180.688 141.755 179.453 138.824L62.8674 136.553C61.5883 139.643 60.5186 142.737 59.6566 146.042V146.042ZM57.8738 160.542C57.8614 162.203 57.849 163.864 58.0475 165.321L184.052 167.776C184.274 166.119 184.285 164.665 184.297 163.005C184.31 161.344 184.322 159.683 184.124 158.226L58.1187 155.771C57.897 157.428 57.8861 158.881 57.8738 160.542ZM75.7792 117.494C72.8272 120.344 70.2908 123.617 67.9636 126.893L174.503 128.969C172.226 125.395 169.738 122.232 166.829 119.268L75.7792 117.494ZM121.553 99.0756C109.204 98.835 97.6651 102.14 87.7827 107.969L155.181 109.282C145.388 103.07 133.902 99.3162 121.553 99.0756Z" fill="#BF0A30"/>
<path d="M58.1194 155.772L184.124 158.226C183.94 154.9 183.335 151.774 182.73 148.648L59.6557 146.25C58.7953 149.348 58.3535 152.454 58.1194 155.772V155.772ZM62.8681 136.554L179.663 138.829C178.223 135.479 176.573 132.124 174.711 129.181L67.9627 127.102C66.0573 129.971 64.3581 133.261 62.8681 136.554V136.554Z" fill="white"/>
<path d="M121.344 99.0717C86.389 98.3908 57.9232 125.867 57.6648 160.538C57.6524 162.199 57.64 163.86 57.837 165.525L120.839 166.752L121.344 99.0717Z" fill="#002868"/>
<path d="M61.8029 139.024C61.8014 139.232 61.5905 139.435 61.589 139.643L61.8029 139.024ZM61.1595 141.088C60.9456 141.707 60.7316 142.325 60.5161 143.152L61.1595 141.088ZM63.9351 161.906L62.0606 160.623L60.1676 161.832L61.0203 159.773L59.1473 158.283L61.4497 158.328L62.0931 156.264L62.9149 158.356L65.2173 158.401L63.3227 159.817L63.9351 161.906ZM72.5865 152.731L70.7135 151.241L68.8189 152.657L69.4639 150.386L67.5893 149.103L69.8918 149.148L70.7445 147.088L71.3569 149.177L73.6593 149.222L71.7663 150.431L72.5865 152.731ZM72.1179 131.335L72.9382 133.635L71.0652 132.145L69.1706 133.561L69.8155 131.29L67.941 130.008L70.2434 130.052L71.0961 127.993L71.7086 130.081L74.011 130.126L72.1179 131.335ZM81.3079 162.244L79.4334 160.962L77.5403 162.171L78.1837 160.107L76.3108 158.617L78.8225 158.666L79.4659 156.602L80.0783 158.69L82.3807 158.735L80.4861 160.152L81.3079 162.244ZM81.4673 140.861L80.6254 141.467L81.4471 143.559L79.5726 142.277L77.6796 143.486L78.323 141.422L77.4904 140.783L76.45 139.932L78.9617 139.981L79.6051 137.917L80.2176 140.006L82.52 140.051L81.4673 140.861ZM80.7708 121.952L81.5926 124.044L79.7181 122.762L77.825 123.971L78.4684 121.907L76.5955 120.417L79.1072 120.466L79.7506 118.402L80.363 120.491L82.6655 120.535L80.7708 121.952ZM89.7453 153.688L87.8708 152.405L85.9777 153.614L86.8304 151.555L84.9575 150.065L87.2599 150.109L87.9033 148.046L88.725 150.138L91.0275 150.183L89.1328 151.599L89.7453 153.688ZM89.4845 132.504L90.097 134.592L88.2224 133.31L86.3294 134.518L87.1821 132.459L85.3091 130.969L87.6115 131.014L88.2549 128.95L89.0767 131.042L91.3791 131.087L89.4845 132.504ZM89.8377 113.2L90.4502 115.288L88.5757 114.006L86.6826 115.215L87.326 113.151L85.6623 111.665L87.9647 111.71L88.6081 109.646L89.2206 111.735L91.523 111.779L89.8377 113.2ZM98.4713 162.579L96.5968 161.296L94.9131 162.509L95.5565 160.445L93.6835 158.955L95.9859 159L96.6293 156.936L97.4511 159.029L99.7535 159.074L97.8589 160.49L98.4713 162.579ZM98.84 141.199L97.9981 141.805L98.6106 143.894L96.7361 142.611L95.0523 143.824L95.6957 141.761L94.8631 141.122L93.8228 140.271L96.1252 140.316L96.7686 138.252L97.5903 140.344L99.8928 140.389L98.84 141.199ZM98.1436 122.29L98.756 124.379L96.8815 123.096L95.1978 124.309L95.8412 122.245L93.9682 120.756L96.2706 120.8L96.914 118.737L97.7358 120.829L100.038 120.874L98.1436 122.29ZM107.118 154.026L105.244 152.744L103.35 153.953L103.994 151.889L102.121 150.399L104.633 150.448L105.276 148.384L105.888 150.472L108.191 150.517L106.296 151.934L107.118 154.026ZM106.648 132.838L107.47 134.93L105.595 133.648L103.702 134.857L104.346 132.793L102.473 131.303L104.775 131.348L105.628 129.288L106.24 131.377L108.543 131.421L106.648 132.838ZM107.001 113.534L107.823 115.627L105.948 114.344L104.055 115.553L104.699 113.49L102.826 112L105.128 112.044L105.981 109.985L106.593 112.073L108.896 112.118L107.001 113.534ZM115.844 162.917L113.97 161.635L112.077 162.844L112.929 160.784L111.056 159.294L113.359 159.339L114.002 157.275L114.615 159.363L116.917 159.408L115.232 160.829L115.844 162.917ZM116.213 141.537L115.371 142.144L115.983 144.232L114.109 142.95L112.216 144.159L113.068 142.099L112.236 141.46L111.196 140.609L113.498 140.654L114.141 138.59L114.754 140.678L117.056 140.723L116.213 141.537ZM115.516 122.629L116.129 124.717L114.254 123.435L112.361 124.644L113.214 122.584L111.341 121.094L113.643 121.139L114.287 119.075L114.899 121.163L117.202 121.208L115.516 122.629ZM115.659 103.529L116.271 105.617L114.397 104.335L112.504 105.544L113.356 103.484L111.483 101.994L113.786 102.039L114.429 99.975L115.042 102.063L117.344 102.108L115.659 103.529ZM97.0239 103.996L98.8984 105.279L98.2859 103.19L98.4968 102.987C97.4471 103.382 96.6068 103.781 95.5572 104.175L95.1293 105.413L97.0239 103.996Z" fill="white"/>
<path d="M96.9132 118.737L96.2698 120.801L93.9674 120.756L95.8403 122.246L95.1969 124.31L96.8807 123.097L98.7552 124.379L98.1428 122.291L100.037 120.874L97.735 120.829L96.9132 118.737ZM96.7677 138.252L96.1243 140.316L93.8219 140.271L94.8623 141.122L95.6949 141.761L95.0515 143.825L96.7352 142.612L98.6098 143.894L97.9973 141.806L98.8392 141.199L99.8919 140.389L97.5895 140.344L96.7677 138.252ZM97.4503 159.029L96.6285 156.937L95.9851 159.001L93.6827 158.956L95.5556 160.446L94.9122 162.509L96.596 161.296L98.4705 162.579L97.858 160.49L99.7527 159.074L97.4503 159.029ZM79.7497 118.402L79.1063 120.466L76.5946 120.417L78.4676 121.907L77.8242 123.971L79.7172 122.762L81.5917 124.045L80.77 121.952L82.6646 120.536L80.3622 120.491L79.7497 118.402ZM79.6043 137.918L78.9609 139.981L76.4492 139.933L77.4895 140.783L78.3221 141.422L77.6787 143.486L79.5718 142.277L81.4463 143.56L80.6245 141.467L81.4664 140.861L82.5192 140.051L80.2167 140.006L79.6043 137.918ZM80.0775 158.691L79.465 156.602L78.8216 158.666L76.3099 158.617L78.1829 160.107L77.5394 162.171L79.4325 160.962L81.307 162.244L80.4853 160.152L82.3799 158.736L80.0775 158.691ZM60.3059 143.148C60.5152 143.152 60.5152 143.152 60.3059 143.148V143.148ZM62.2315 137.579L61.8021 139.024C62.0145 138.613 62.2269 138.202 62.2315 137.579Z" fill="white"/>
<path d="M64.0744 143.221L63.4635 140.925L64.3054 140.319L65.3581 139.509L63.0557 139.464L62.4432 137.375L61.806 138.609L61.5921 139.228C61.3797 139.639 61.3766 140.054 61.1642 140.465L60.5208 142.529L60.5192 142.737L62.4123 141.528L64.0744 143.221V143.221ZM62.9149 158.356L62.0931 156.264L61.4497 158.328L59.1473 158.283L61.0203 159.773L60.1676 161.832L62.0606 160.623L63.9351 161.906L63.3227 159.817L65.2173 158.401L62.9149 158.356ZM105.628 129.288L104.775 131.348L102.473 131.303L104.346 132.793L103.702 134.857L105.595 133.648L107.47 134.93L106.648 132.838L108.543 131.421L106.24 131.377L105.628 129.288ZM105.888 150.472L105.276 148.384L104.633 150.448L102.121 150.399L103.994 151.889L103.35 153.953L105.244 152.744L107.118 154.026L106.296 151.934L108.191 150.517L105.888 150.472ZM88.2549 128.95L87.6115 131.014L85.3091 130.969L87.1821 132.459L86.3294 134.518L88.2224 133.31L90.097 134.592L89.4845 132.504L91.3791 131.087L89.0767 131.042L88.2549 128.95ZM88.725 150.138L87.9033 148.046L87.2599 150.109L84.9575 150.065L86.8304 151.555L85.9777 153.614L87.8708 152.405L89.7453 153.688L89.1328 151.599L91.0275 150.183L88.725 150.138ZM71.0961 127.993L70.2434 130.052L67.941 130.008L69.8155 131.29L69.1706 133.561L71.0652 132.145L72.9382 133.635L72.1179 131.335L74.011 130.126L71.7086 130.081L71.0961 127.993ZM71.3569 149.177L70.7445 147.088L69.8918 149.148L67.5893 149.103L69.4639 150.386L68.8189 152.657L70.7135 151.241L72.5865 152.731L71.7663 150.431L73.6593 149.222L71.3569 149.177ZM114.287 119.075L113.643 121.139L111.341 121.094L113.214 122.584L112.361 124.644L114.254 123.435L116.129 124.717L115.516 122.629L117.202 121.208L114.899 121.163L114.287 119.075ZM88.6081 109.646L87.9647 111.71L85.6623 111.665L87.326 113.151L86.6826 115.215L88.5757 114.006L90.4502 115.288L89.8377 113.2L91.523 111.779L89.2206 111.735L88.6081 109.646ZM105.981 109.985L105.128 112.044L102.826 112L104.699 113.49L104.055 115.553L105.948 114.344L107.823 115.627L107.001 113.534L108.896 112.118L106.593 112.073L105.981 109.985ZM114.429 99.975L113.786 102.039L111.483 101.994L113.356 103.484L112.504 105.544L114.397 104.335L116.271 105.617L115.659 103.529L117.344 102.108L115.042 102.063L114.429 99.975ZM114.141 138.59L113.498 140.654L111.196 140.609L112.236 141.46L113.068 142.099L112.216 144.159L114.109 142.95L115.983 144.232L115.371 142.144L116.213 141.537L117.056 140.723L114.754 140.678L114.141 138.59ZM114.615 159.363L114.002 157.275L113.359 159.339L111.056 159.294L112.929 160.784L112.077 162.844L113.97 161.635L115.844 162.917L115.232 160.829L116.917 159.408L114.615 159.363Z" fill="white"/>
<g clip-path="url(#clip0_15_14468)">
<rect x="157" y="107.104" width="111" height="111" rx="55.5" fill="#0167AF"/>
<path fill-rule="evenodd" clip-rule="evenodd" d="M212.5 96.0815H184.851V148.331H151.489L151.489 169.343H184.851V218.103H212.5V169.343L273.511 169.343V148.331L212.5 148.331V96.0815Z" fill="#FFCB00"/>
</g>
<defs>
<clipPath id="clip0_15_14468">
<rect x="157" y="107.104" width="111" height="111" rx="55.5" fill="white"/>
</clipPath>
</defs>
</svg>
