<svg width="537" height="535" viewBox="0 0 537 535" fill="none" xmlns="http://www.w3.org/2000/svg">
<rect x="0.733887" y="0.535645" width="536" height="534" rx="267" fill="url(#paint0_linear_15_14458)"/>
<g clip-path="url(#clip0_15_14458)">
<path d="M281.465 143.234C301.292 117.169 328.855 117.042 328.855 117.042C328.855 117.042 332.955 141.548 313.259 165.155C292.227 190.362 268.323 186.238 268.323 186.238C268.323 186.238 263.834 166.413 281.465 143.234V143.234ZM270.844 203.404C281.044 203.404 299.974 189.419 324.615 189.419C367.029 189.419 383.715 219.523 383.715 219.523C383.715 219.523 351.08 236.166 351.08 276.549C351.08 322.104 391.734 337.804 391.734 337.804C391.734 337.804 363.316 417.588 324.931 417.588C307.301 417.588 293.594 405.737 275.018 405.737C256.088 405.737 237.302 418.03 225.067 418.03C190.016 418.031 145.734 342.348 145.734 281.511C145.734 221.656 183.216 190.258 218.372 190.258C241.227 190.258 258.963 203.404 270.844 203.404V203.404Z" fill="white"/>
</g>
<defs>
<linearGradient id="paint0_linear_15_14458" x1="78.088" y1="-90.4712" x2="741.138" y2="602.048" gradientUnits="userSpaceOnUse">
<stop stop-color="#E6E6E6"/>
<stop offset="1" stop-color="#181818" stop-opacity="0"/>
</linearGradient>
<clipPath id="clip0_15_14458">
<rect width="246" height="301" fill="white" transform="translate(145.734 117.036)"/>
</clipPath>
</defs>
</svg>
