<svg width="285" height="264" viewBox="0 0 285 264" fill="none" xmlns="http://www.w3.org/2000/svg">
<g clip-path="url(#clip0_15_14467)">
<path d="M0.276636 12.7316C0.276636 7.27626 1.45066 0.137207 9.38399 0.137207L268.161 0.137487C274.025 0.137487 284.897 11.7112 284.897 17.1665V253.732C284.897 259.187 280.144 263.609 274.28 263.609H20.0013C14.1375 263.609 1.28291 253.642 1.28291 248.187L0.276636 12.7316Z" fill="url(#paint0_linear_15_14467)"/>
<path d="M201.227 87.4779C189.822 84.4799 177.967 87.8063 169.963 95.8106C165.76 100.014 163.223 105.949 161.57 111.855C159.893 116.929 154.834 123.654 145.954 120.676C139.207 118.96 135.349 111.748 137.031 105.001C137.875 99.0934 138.28 92.7475 136.971 86.4058C133.973 75.0012 125.477 66.5059 114.072 63.5073C102.667 60.5088 90.8042 63.8652 82.7978 71.8717C74.7913 79.8781 71.4347 91.6971 74.4421 103.134C77.4402 114.539 85.9354 123.034 97.3406 126.033C103.279 127.746 109.602 127.361 115.509 125.666C120.159 124.414 128.629 125.283 131.183 134.588C132.899 141.335 128.67 148.106 122.362 150.205C116.435 151.879 110.949 154.822 106.746 159.025C98.7308 167.041 95.3829 178.851 98.4133 190.289C101.411 201.694 109.907 210.189 121.312 213.188C132.717 216.186 144.572 212.86 152.576 204.856C160.581 196.852 163.928 185.02 160.92 173.582C159.207 167.643 155.803 162.563 151.145 157.904C147.319 154.078 144.759 146.488 151.087 140.161C156.15 135.097 163.755 135.143 168.83 140.219C173.061 144.45 178.569 148.281 184.508 149.994C195.912 152.992 207.767 149.665 215.771 141.662C223.774 133.658 227.123 121.825 224.103 110.398C222.818 104.888 219.425 99.8178 215.601 95.9938C211.819 92.1683 206.695 88.7645 201.228 87.4796" fill="white"/>
</g>
<defs>
<linearGradient id="paint0_linear_15_14467" x1="-112.975" y1="-139.026" x2="399.183" y2="363.187" gradientUnits="userSpaceOnUse">
<stop stop-color="#11AAE2"/>
<stop offset="1" stop-color="#9A34FF"/>
</linearGradient>
<clipPath id="clip0_15_14467">
<rect x="0.733887" width="284" height="264" rx="132" fill="white"/>
</clipPath>
</defs>
</svg>
