<svg width="226" height="215" viewBox="0 0 226 215" fill="none" xmlns="http://www.w3.org/2000/svg">
<path fill-rule="evenodd" clip-rule="evenodd" d="M0.856934 54.5851V207.656C0.856934 211.522 3.99094 214.656 7.85693 214.656H218.76C222.626 214.656 225.76 211.522 225.76 207.656V107.961L173.353 147.006L171.36 148.49L168.901 148.131L147.919 145.065L142.688 144.301L142.788 139.015L143.161 119.195L143.217 116.254L145.576 114.496L225.76 54.7566V7.84717C225.76 3.98118 222.626 0.847168 218.76 0.847168H59.8417L62.0114 52.9794L62.2425 58.5338L56.6947 58.177L0.856934 54.5851ZM225.76 92.9966V69.7208L155.104 122.362L154.885 133.956L168.177 135.898L225.76 92.9966ZM49.4786 0.847168H49.833L51.7888 47.8407L2.56009 44.674L49.4786 0.847168Z" fill="url(#paint0_linear_193_197)"/>
<defs>
<linearGradient id="paint0_linear_193_197" x1="0.856936" y1="214.656" x2="306.443" y2="17.9923" gradientUnits="userSpaceOnUse">
<stop stop-color="#FE5A4C"/>
<stop offset="1" stop-color="#FAB82C"/>
</linearGradient>
</defs>
</svg>
