<svg width="171" height="70" viewBox="0 0 171 70" fill="none" xmlns="http://www.w3.org/2000/svg">
<path d="M54.3403 20.9811C55.1513 21.0769 55.8978 21.4576 56.4405 22.0517C56.9833 22.6458 57.2849 23.4124 57.2875 24.2072V59.6801C57.2973 60.108 57.2132 60.5331 57.0408 60.9269C56.8685 61.3208 56.6114 61.6742 56.2876 61.964C55.7709 62.4879 55.0832 62.8206 54.3419 62.9046V68.9865C54.3419 69.1 54.2958 69.2089 54.2137 69.2895C54.1315 69.37 54.0195 69.4158 53.9028 69.4167C53.7855 69.4165 53.6735 69.371 53.5903 69.2905C53.5072 69.2099 53.4594 69.1006 53.4588 68.9865V62.9046C52.7183 62.8195 52.0315 62.487 51.5148 61.964C51.1907 61.6744 50.9338 61.321 50.7615 60.9271C50.5893 60.5332 50.5061 60.108 50.5165 59.6801V24.2072C50.5184 23.413 50.8184 22.6468 51.3602 22.0527C51.902 21.4586 52.6485 21.0775 53.4588 20.9811V9.9582C53.4594 9.8442 53.5072 9.7351 53.5903 9.65479C53.6735 9.57449 53.7856 9.52957 53.9028 9.52979C54.0193 9.53022 54.1298 9.57549 54.212 9.65579C54.2942 9.7361 54.3419 9.84485 54.3419 9.9582L54.3403 20.9811Z" fill="url(#paint0_linear_452_812)"/>
<path d="M42.2663 11.8668C43.0759 11.9651 43.821 12.3467 44.3624 12.9404C44.9039 13.5341 45.2047 14.2993 45.2086 15.0929V50.5658C45.2187 50.9934 45.1343 51.4182 44.9619 51.8116C44.7895 52.2051 44.5327 52.5582 44.2087 52.8473C43.6937 53.372 43.0069 53.7052 42.2663 53.7895V62.5774C42.265 62.6907 42.2181 62.799 42.1356 62.8789C42.0531 62.9589 41.9412 63.0042 41.8248 63.005C41.708 63.005 41.5966 62.96 41.5139 62.8799C41.4312 62.7997 41.3844 62.6909 41.384 62.5774V53.7903C40.6433 53.7054 39.9557 53.3723 39.44 52.8482C39.1162 52.5589 38.8598 52.2058 38.6876 51.8123C38.5154 51.4188 38.4317 50.9941 38.4417 50.5666V15.0937C38.4449 14.3 38.7457 13.5346 39.2871 12.9408C39.8285 12.3469 40.5735 11.9654 41.3832 11.8676V0.845625C41.3832 0.731698 41.4296 0.622425 41.5123 0.541789C41.595 0.461154 41.7068 0.415744 41.8239 0.415527V0.415527C41.941 0.41596 42.0537 0.461439 42.1364 0.542028C42.2191 0.622616 42.2653 0.731764 42.2655 0.845625L42.2663 11.8668Z" fill="url(#paint1_linear_452_812)"/>
<path d="M159.48 29.5875C159.1 29.5789 158.723 29.6462 158.372 29.7851C158.02 29.924 157.7 30.132 157.434 30.3955C157.169 30.6559 156.96 30.965 156.819 31.3052C156.678 31.6454 156.609 32.0098 156.615 32.3764C156.603 32.8882 156.747 33.392 157.031 33.8233C157.315 34.2545 157.724 34.5936 158.207 34.7973C159.716 35.3414 161.259 35.7917 162.827 36.1458C164.625 36.5547 166.298 37.371 167.71 38.5287C169.237 39.9517 170.002 41.9598 170.002 44.5821C170.006 45.8136 169.758 47.0338 169.276 48.1723C168.793 49.3107 168.083 50.3451 167.188 51.216C166.293 52.0869 165.23 52.7771 164.06 53.2469C162.89 53.7167 161.637 53.9567 160.371 53.9533H153.16C152.722 53.9561 152.288 53.8722 151.885 53.7069C151.482 53.5416 151.116 53.2984 150.813 52.9917C150.491 52.7005 150.237 52.3465 150.066 51.9528C149.895 51.5592 149.812 51.1348 149.821 50.7076V50.6528C149.828 49.7902 150.181 48.9641 150.805 48.3511C151.428 47.7381 152.273 47.3866 153.16 47.3714H160.643C161.021 47.3759 161.396 47.3073 161.746 47.169C162.097 47.0308 162.414 46.826 162.682 46.5666C162.95 46.3072 163.162 45.9986 163.305 45.6586C163.449 45.3185 163.522 44.9538 163.519 44.5861C163.518 44.1025 163.367 43.6305 163.087 43.2313C162.806 42.8321 162.408 42.5242 161.945 42.348C161.671 42.2301 160.123 41.7813 157.306 41.0096C155.491 40.5868 153.811 39.7363 152.413 38.5331C150.887 37.0852 150.124 35.0342 150.124 32.3804C150.134 29.8978 151.152 27.5195 152.956 25.7637C154.76 24.008 157.205 23.0172 159.756 23.0068H164.847C165.739 23.0094 166.593 23.3555 167.223 23.9697C167.853 24.5838 168.208 25.4159 168.21 26.2838V26.3386C168.221 26.7655 168.14 27.19 167.97 27.5838C167.8 27.9776 167.544 28.3317 167.223 28.6227C166.916 28.9339 166.547 29.1805 166.138 29.3475C165.729 29.5145 165.29 29.5982 164.847 29.5935L159.48 29.5875ZM117.749 64.9966C116.867 64.9864 116.025 64.6411 115.402 64.0345C114.779 63.428 114.424 62.6084 114.413 61.7508V38.4279C114.426 35.3719 115.368 32.3883 117.122 29.8531C118.876 27.3179 121.363 25.3451 124.268 24.1837C127.174 23.0222 130.368 22.7241 133.447 23.3272C136.526 23.9303 139.353 25.4075 141.57 27.5722C143.787 29.7369 145.294 32.4922 145.903 35.4901C146.512 38.4881 146.196 41.5944 144.992 44.4169C143.788 47.2394 141.751 49.6518 139.139 51.3492C136.527 53.0466 133.457 53.953 130.315 53.9541C126.309 53.9541 123.253 53.058 121.179 51.2696V61.7508C121.165 62.6091 120.806 63.4282 120.181 64.0341C119.556 64.6401 118.715 64.9852 117.833 64.9966H117.749ZM130.315 47.3158C131.523 47.3271 132.721 47.1056 133.84 46.6638C134.959 46.222 135.977 45.5689 136.835 44.7421C137.693 43.9154 138.373 42.9312 138.838 41.8468C139.303 40.7624 139.544 39.5992 139.544 38.4243C139.544 37.2494 139.303 36.0861 138.838 35.0017C138.373 33.9173 137.693 32.9336 136.835 32.1068C135.977 31.28 134.959 30.6269 133.84 30.1851C132.721 29.7433 131.523 29.5214 130.315 29.5327C128.51 29.5369 126.746 30.0602 125.245 31.0368C123.744 32.0133 122.575 33.3995 121.882 35.0213C121.188 36.6431 121.003 38.4281 121.349 40.1519C121.695 41.8758 122.557 43.4612 123.827 44.7097C124.668 45.5534 125.677 46.2203 126.793 46.6686C127.909 47.1169 129.108 47.3371 130.315 47.3158ZM104.476 19.5103C103.842 19.5139 103.215 19.365 102.654 19.0767C102.093 18.7883 101.614 18.3694 101.259 17.8574C100.905 17.3455 100.685 16.7563 100.621 16.1421C100.557 15.5279 100.651 14.9081 100.893 14.3373C101.134 13.7664 101.518 13.2625 102.008 12.8704C102.498 12.4783 103.079 12.21 103.702 12.0896C104.324 11.9691 104.968 12.0002 105.575 12.18C106.182 12.3598 106.734 12.683 107.182 13.1204C107.548 13.4626 107.84 13.8734 108.039 14.3281C108.238 14.7827 108.341 15.2719 108.341 15.7661C108.341 16.2604 108.238 16.7495 108.039 17.2042C107.84 17.6588 107.548 18.0696 107.182 18.4118C106.832 18.7647 106.41 19.0441 105.945 19.2331C105.48 19.422 104.981 19.5162 104.476 19.5103ZM104.506 23.0036C104.945 22.9944 105.381 23.0755 105.786 23.2416C106.19 23.4078 106.554 23.6551 106.853 23.9677C107.17 24.2675 107.42 24.627 107.59 25.0241C107.76 25.4212 107.846 25.8476 107.841 26.2778V50.7092C107.831 51.5668 107.476 52.3863 106.853 52.9929C106.23 53.5994 105.388 53.9447 104.506 53.9549H104.448C104.006 53.9611 103.566 53.8791 103.157 53.7137C102.749 53.5483 102.379 53.303 102.072 52.9933C101.751 52.7017 101.496 52.3479 101.324 51.9544C101.152 51.561 101.067 51.1367 101.074 50.7092V26.2778C101.072 25.8471 101.159 25.4206 101.33 25.0237C101.502 24.6268 101.754 24.2677 102.072 23.9677C102.379 23.6576 102.749 23.4123 103.157 23.2464C103.566 23.0806 104.006 22.998 104.448 23.0036H104.506ZM66.8847 64.9974C66.0031 64.9866 65.1598 64.6413 64.5362 64.0349C63.9125 63.4286 63.5562 62.6093 63.5444 61.7516V38.4287C63.5562 35.372 64.4992 32.3875 66.2532 29.8515C68.0072 27.3155 70.4948 25.342 73.4008 24.1801C76.3068 23.0182 79.5012 22.7201 82.5812 23.3232C85.6613 23.9264 88.4881 25.4038 90.7058 27.569C92.9235 29.7342 94.4321 32.4899 95.0411 35.4885C95.6501 38.4872 95.3329 41.5942 94.1283 44.4173C92.9237 47.2404 90.8862 49.6529 88.2734 51.3504C85.6605 53.0479 82.59 53.9543 79.4482 53.9549C75.445 53.9549 72.3878 53.0588 70.3138 51.2704V61.7516C70.2992 62.6096 69.9417 63.4282 69.3171 64.0341C68.6926 64.6401 67.8505 64.9856 66.9686 64.9974H66.8847ZM79.4482 47.3166C80.6557 47.3279 81.8537 47.1064 82.9727 46.6646C84.0917 46.2228 85.1096 45.5697 85.9676 44.7429C86.8256 43.9162 87.5059 42.932 87.9707 41.8476C88.4356 40.7632 88.6747 39.6 88.6747 38.4251C88.6747 37.2502 88.4356 36.0869 87.9707 35.0025C87.5059 33.9181 86.8256 32.9344 85.9676 32.1076C85.1096 31.2808 84.0917 30.6277 82.9727 30.1859C81.8537 29.7441 80.6557 29.5222 79.4482 29.5335C77.6432 29.5385 75.8794 30.0623 74.3794 31.0392C72.8794 32.016 71.7088 33.4021 71.0161 35.0237C70.3233 36.6453 70.1384 38.4301 70.4848 40.1535C70.8313 41.877 71.6937 43.4623 72.9633 44.7105C73.8031 45.5538 74.8131 46.2205 75.9286 46.6686C77.0441 47.1168 78.2415 47.337 79.4482 47.3158V47.3166Z" fill="#5521A9"/>
<path d="M15.9032 29.6165C14.6966 29.5957 13.4984 29.8161 12.383 30.2646C11.2677 30.713 10.2589 31.3796 9.41937 32.223C7.72166 33.904 6.77038 36.1667 6.77038 38.5233C6.77038 40.8799 7.72166 43.1418 9.41937 44.8228C10.2645 45.6571 11.2749 46.3157 12.3895 46.7588C13.504 47.202 14.6994 47.4209 15.9032 47.4013C17.106 47.4076 18.2981 47.1814 19.4106 46.7364C20.523 46.2914 21.5336 45.636 22.384 44.8084C23.2344 43.9808 23.9075 42.9979 24.3645 41.9154C24.8215 40.833 25.0532 39.6727 25.0463 38.5025C25.066 37.3333 24.8386 36.1729 24.3783 35.0928C23.918 34.0126 23.2345 33.0356 22.3702 32.223C21.5335 31.3806 20.5276 30.7146 19.4151 30.2662C18.3026 29.8177 17.1073 29.5967 15.9032 29.6165ZM15.9032 23.0314C17.9973 23.001 20.0756 23.388 22.0099 24.1691C23.9441 24.9502 25.6934 26.109 27.1498 27.5732C28.6527 28.989 29.842 30.6891 30.6444 32.5686C31.4468 34.4482 31.8454 36.4674 31.8156 38.5025V50.7382C31.8248 51.1654 31.7413 51.5894 31.5705 51.9831C31.3997 52.3768 31.1455 52.7314 30.8245 53.0231C30.5201 53.3291 30.1552 53.5716 29.7517 53.7367C29.3482 53.9019 28.9146 53.9862 28.4769 53.9839H28.3927C27.9551 53.9878 27.5213 53.9044 27.118 53.7391C26.7147 53.5739 26.3504 53.3304 26.0475 53.0231C25.7233 52.7334 25.4663 52.3795 25.2937 51.9855C25.121 51.5915 25.0367 51.1664 25.0463 50.7382C22.9535 52.9021 19.9058 53.9839 15.9032 53.9839C13.811 54.0138 11.7347 53.6261 9.80225 52.8455C7.86977 52.0649 6.12205 50.9081 4.66678 49.4454C3.18754 48.0108 2.01387 46.3059 1.21305 44.4291C0.412226 42.5524 0 40.5401 0 38.5081C0 36.476 0.412226 34.4646 1.21305 32.5879C2.01387 30.7111 3.18754 29.0062 4.66678 27.5716C6.12198 26.1088 7.86967 24.9514 9.80215 24.1707C11.7346 23.39 13.811 23.0025 15.9032 23.0322V23.0314Z" fill="#5521A9"/>
<defs>
<linearGradient id="paint0_linear_452_812" x1="50.5156" y1="57.5591" x2="50.5156" y2="9.94899" gradientUnits="userSpaceOnUse">
<stop stop-color="#F50057"/>
<stop offset="1" stop-color="#651FFF"/>
</linearGradient>
<linearGradient id="paint1_linear_452_812" x1="38.4409" y1="0.728475" x2="38.4409" y2="62.3165" gradientUnits="userSpaceOnUse">
<stop stop-color="#F50057"/>
<stop offset="1" stop-color="#651FFF"/>
</linearGradient>
</defs>
</svg>
