<svg width="145" height="60" viewBox="0 0 145 60" fill="none" xmlns="http://www.w3.org/2000/svg">
<g clip-path="url(#clip0_420_1485)">
<path d="M46.9844 18.3405C47.6713 18.4225 48.3036 18.748 48.7634 19.256C49.2231 19.764 49.4786 20.4195 49.4808 21.0991V51.431C49.4891 51.7969 49.4178 52.1604 49.2719 52.4971C49.1259 52.8339 48.9081 53.1361 48.6338 53.3839C48.1962 53.8319 47.6137 54.1164 46.9857 54.1882V59.3886C46.9858 59.4857 46.9467 59.5788 46.8771 59.6477C46.8075 59.7166 46.7126 59.7557 46.6138 59.7565V59.7565C46.5144 59.7563 46.4195 59.7175 46.3491 59.6486C46.2787 59.5797 46.2382 59.4862 46.2376 59.3886V54.1882C45.6104 54.1154 45.0286 53.8311 44.591 53.3839C44.3165 53.1363 44.0988 52.8341 43.9529 52.4973C43.807 52.1605 43.7366 51.7969 43.7454 51.431V21.0991C43.747 20.42 44.0011 19.7648 44.46 19.2568C44.919 18.7488 45.5513 18.423 46.2376 18.3405V8.91516C46.2382 8.81768 46.2786 8.72438 46.3491 8.65572C46.4195 8.58705 46.5145 8.54864 46.6138 8.54883V8.54883C46.7125 8.5492 46.806 8.58791 46.8757 8.65657C46.9453 8.72524 46.9858 8.81823 46.9857 8.91516L46.9844 18.3405Z" fill="url(#paint0_linear_420_1485)"/>
<path d="M36.757 10.547C37.4427 10.6311 38.0739 10.9574 38.5325 11.4651C38.9911 11.9727 39.2459 12.627 39.2492 13.3056V43.6375C39.2577 44.0031 39.1863 44.3663 39.0403 44.7028C38.8942 45.0392 38.6767 45.3412 38.4022 45.5884C37.966 46.037 37.3843 46.3219 36.757 46.394V53.9083C36.7558 54.0051 36.7161 54.0977 36.6462 54.1661C36.5763 54.2345 36.4816 54.2732 36.3829 54.2739C36.284 54.2739 36.1897 54.2354 36.1196 54.1669C36.0496 54.0984 36.0099 54.0054 36.0096 53.9083V46.3947C35.3822 46.3221 34.7997 46.0373 34.3629 45.5891C34.0886 45.3418 33.8714 45.0398 33.7256 44.7033C33.5797 44.3669 33.5088 44.0037 33.5173 43.6382V13.3063C33.52 12.6276 33.7748 11.9731 34.2333 11.4654C34.6919 10.9576 35.323 10.6314 36.0089 10.5477V1.12314C36.0089 1.02572 36.0481 0.932284 36.1182 0.863334C36.1883 0.794385 36.283 0.755557 36.3822 0.755371V0.755371C36.4813 0.755741 36.5769 0.794629 36.6469 0.863538C36.7169 0.932447 36.7561 1.02578 36.7563 1.12314L36.757 10.547Z" fill="url(#paint1_linear_420_1485)"/>
<path d="M136.047 25.7242C135.725 25.7169 135.406 25.7744 135.108 25.8932C134.81 26.012 134.539 26.1898 134.314 26.4152C134.089 26.6378 133.912 26.9021 133.793 27.193C133.674 27.4839 133.615 27.7954 133.62 28.109C133.61 28.5466 133.732 28.9774 133.972 29.3461C134.213 29.7149 134.56 30.0048 134.969 30.179C136.247 30.6442 137.554 31.0293 138.882 31.332C140.405 31.6817 141.822 32.3797 143.018 33.3696C144.312 34.5864 144.96 36.3034 144.96 38.5457C144.963 39.5988 144.753 40.6421 144.344 41.6156C143.935 42.589 143.334 43.4735 142.576 44.2182C141.818 44.9628 140.918 45.553 139.927 45.9547C138.935 46.3564 137.874 46.5616 136.802 46.5588H130.693C130.322 46.5612 129.955 46.4895 129.613 46.3481C129.272 46.2067 128.962 45.9988 128.705 45.7365C128.433 45.4875 128.217 45.1848 128.073 44.8482C127.928 44.5116 127.857 44.1487 127.865 43.7834V43.7366C127.871 42.9991 128.17 42.2926 128.698 41.7685C129.226 41.2443 129.942 40.9438 130.693 40.9308H137.032C137.352 40.9346 137.67 40.8759 137.966 40.7577C138.263 40.6395 138.532 40.4644 138.759 40.2426C138.986 40.0208 139.165 39.7569 139.287 39.4662C139.409 39.1754 139.471 38.8635 139.468 38.5492C139.467 38.1356 139.34 37.732 139.102 37.3907C138.864 37.0493 138.527 36.7861 138.135 36.6354C137.903 36.5345 136.592 36.1508 134.205 35.4909C132.668 35.1294 131.245 34.4022 130.061 33.3734C128.768 32.1353 128.121 30.3816 128.121 28.1124C128.13 25.9895 128.992 23.9559 130.52 22.4546C132.049 20.9534 134.119 20.1061 136.281 20.0973H140.593C141.348 20.0995 142.072 20.3955 142.606 20.9206C143.139 21.4457 143.44 22.1572 143.441 22.8993V22.9462C143.451 23.3112 143.382 23.6742 143.238 24.0109C143.094 24.3477 142.878 24.6504 142.606 24.8992C142.345 25.1653 142.033 25.3762 141.686 25.519C141.34 25.6618 140.968 25.7334 140.593 25.7294L136.047 25.7242ZM100.698 56.0016C99.9512 55.9928 99.2379 55.6976 98.7099 55.179C98.182 54.6603 97.8814 53.9595 97.8727 53.2262V33.2834C97.8831 30.6703 98.6815 28.1191 100.167 25.9514C101.653 23.7836 103.759 22.0967 106.22 21.1036C108.681 20.1105 111.387 19.8556 113.995 20.3713C116.604 20.887 118.998 22.15 120.876 24.001C122.754 25.852 124.031 28.2079 124.547 30.7714C125.062 33.3349 124.795 35.991 123.775 38.4045C122.755 40.8179 121.029 42.8807 118.817 44.3321C116.604 45.7835 114.003 46.5585 111.343 46.5595C107.949 46.5595 105.361 45.7932 103.604 44.264V53.2262C103.592 53.9601 103.288 54.6605 102.758 55.1786C102.229 55.6968 101.516 55.9918 100.769 56.0016H100.698ZM111.343 40.8833C112.366 40.8929 113.38 40.7035 114.328 40.3257C115.276 39.948 116.138 39.3895 116.865 38.6825C117.592 37.9756 118.168 37.1341 118.562 36.2068C118.956 35.2796 119.159 34.2849 119.159 33.2803C119.159 32.2757 118.956 31.281 118.562 30.3538C118.168 29.4266 117.592 28.5854 116.865 27.8784C116.138 27.1715 115.276 26.613 114.328 26.2352C113.38 25.8575 112.366 25.6677 111.343 25.6774C109.813 25.6809 108.319 26.1285 107.048 26.9635C105.777 27.7984 104.786 28.9838 104.199 30.3706C103.612 31.7573 103.454 33.2836 103.747 34.7576C104.041 36.2316 104.771 37.5873 105.847 38.6548C106.559 39.3762 107.413 39.9465 108.359 40.3298C109.304 40.7131 110.32 40.9014 111.343 40.8833V40.8833ZM89.4555 17.1075C88.918 17.1106 88.3872 16.9832 87.9119 16.7367C87.4366 16.4902 87.0309 16.1319 86.7306 15.6942C86.4302 15.2564 86.2443 14.7527 86.19 14.2275C86.1358 13.7023 86.2152 13.1723 86.4199 12.6842C86.6246 12.1961 86.9493 11.7652 87.3644 11.4299C87.7796 11.0946 88.2722 10.8652 88.7993 10.7622C89.3265 10.6593 89.8719 10.6858 90.3861 10.8395C90.9003 10.9933 91.3679 11.2697 91.7472 11.6437C92.0577 11.9363 92.3042 12.2875 92.473 12.6763C92.6417 13.0651 92.7293 13.4833 92.7293 13.906C92.7293 14.3286 92.6417 14.7468 92.473 15.1356C92.3042 15.5244 92.0577 15.8756 91.7472 16.1682C91.4505 16.47 91.0936 16.7089 90.6995 16.8704C90.3054 17.032 89.8825 17.1126 89.4555 17.1075V17.1075ZM89.4806 20.0945C89.8524 20.0867 90.2218 20.156 90.5644 20.2981C90.907 20.4402 91.215 20.6516 91.4685 20.9189C91.7371 21.1753 91.9487 21.4826 92.0927 21.8222C92.2366 22.1618 92.3098 22.5264 92.3058 22.8942V43.7848C92.2971 44.5181 91.9965 45.2189 91.4685 45.7375C90.9406 46.2562 90.2272 46.5514 89.4806 46.5601H89.4318C89.0569 46.5654 88.6844 46.4953 88.3382 46.3539C87.992 46.2124 87.6793 46.0027 87.4188 45.7379C87.1465 45.4886 86.9306 45.186 86.7849 44.8496C86.6392 44.5132 86.5672 44.1503 86.5731 43.7848V22.8942C86.5717 22.526 86.6451 22.1613 86.7905 21.8219C86.9358 21.4825 87.1498 21.1754 87.4188 20.9189C87.6792 20.6538 87.992 20.444 88.3382 20.3022C88.6844 20.1604 89.0568 20.0897 89.4318 20.0945H89.4806ZM57.6131 56.0022C56.8663 55.993 56.152 55.6977 55.6237 55.1793C55.0955 54.6609 54.7937 53.9603 54.7837 53.2269V33.2841C54.7937 30.6704 55.5924 28.1184 57.0781 25.95C58.5639 23.7816 60.6711 22.094 63.1326 21.1005C65.5942 20.107 68.3 19.8521 70.909 20.3678C73.518 20.8836 75.9125 22.1469 77.791 23.9983C79.6694 25.8497 80.9473 28.206 81.4632 30.7701C81.9791 33.3341 81.7104 35.9909 80.69 38.4048C79.6697 40.8187 77.9437 42.8816 75.7305 44.3331C73.5173 45.7846 70.9164 46.5596 68.2551 46.5601C64.8642 46.5601 62.2745 45.7939 60.5177 44.2647V53.2269C60.5054 53.9605 60.2025 54.6605 59.6735 55.1786C59.1445 55.6967 58.4312 55.9922 57.6842 56.0022H57.6131ZM68.2551 40.8839C69.278 40.8936 70.2927 40.7042 71.2405 40.3264C72.1884 39.9486 73.0506 39.3902 73.7774 38.6832C74.5042 37.9763 75.0805 37.1347 75.4742 36.2075C75.8679 35.2803 76.0705 34.2856 76.0705 33.281C76.0705 32.2764 75.8679 31.2817 75.4742 30.3545C75.0805 29.4273 74.5042 28.5861 73.7774 27.8791C73.0506 27.1722 72.1884 26.6137 71.2405 26.2359C70.2927 25.8582 69.278 25.6684 68.2551 25.6781C66.7261 25.6823 65.2321 26.1303 63.9615 26.9655C62.6909 27.8008 61.6994 28.986 61.1126 30.3726C60.5258 31.7592 60.3692 33.2853 60.6626 34.759C60.9561 36.2327 61.6866 37.5882 62.7621 38.6555C63.4734 39.3766 64.3289 39.9466 65.2738 40.3298C66.2187 40.713 67.233 40.9013 68.2551 40.8833V40.8839Z" fill="#5D25BF"/>
<path d="M14.426 25.7244C13.4039 25.7067 12.389 25.8951 11.4442 26.2785C10.4995 26.662 9.64499 27.232 8.93384 27.9532C7.49578 29.3905 6.68999 31.3253 6.68999 33.3404C6.68999 35.3554 7.49578 37.2895 8.93384 38.7269C9.64972 39.4402 10.5056 40.0034 11.4497 40.3823C12.3937 40.7613 13.4063 40.9484 14.426 40.9317C15.4449 40.9371 16.4547 40.7437 17.397 40.3632C18.3393 39.9827 19.1953 39.4222 19.9156 38.7145C20.6359 38.0069 21.2061 37.1665 21.5932 36.2409C21.9803 35.3153 22.1766 34.3232 22.1708 33.3226C22.1875 32.3228 21.9949 31.3306 21.6049 30.407C21.215 29.4834 20.6361 28.648 19.904 27.9532C19.1952 27.2328 18.3432 26.6633 17.4008 26.2799C16.4585 25.8965 15.4459 25.7075 14.426 25.7244ZM14.426 20.0937C16.1999 20.0677 17.9603 20.3985 19.5987 21.0665C21.2372 21.7344 22.7189 22.7252 23.9525 23.9773C25.2256 25.1878 26.233 26.6415 26.9127 28.2487C27.5924 29.8559 27.93 31.5825 27.9048 33.3226V43.785C27.9126 44.1503 27.8418 44.5128 27.6972 44.8494C27.5525 45.1861 27.3372 45.4894 27.0653 45.7387C26.8074 46.0004 26.4983 46.2077 26.1565 46.349C25.8148 46.4902 25.4474 46.5623 25.0767 46.5603H25.0053C24.6347 46.5636 24.2672 46.4923 23.9256 46.351C23.584 46.2097 23.2754 46.0015 23.0189 45.7387C22.7442 45.491 22.5265 45.1884 22.3803 44.8515C22.2341 44.5146 22.1626 44.1511 22.1708 43.785C20.3981 45.6353 17.8165 46.5603 14.426 46.5603C12.6538 46.5859 10.8951 46.2543 9.25816 45.5869C7.62124 44.9194 6.14081 43.9302 4.90812 42.6795C3.65511 41.4528 2.66095 39.9951 1.9826 38.3903C1.30426 36.7855 0.955078 35.0649 0.955078 33.3274C0.955078 31.5898 1.30426 29.8699 1.9826 28.2651C2.66095 26.6604 3.65511 25.2026 4.90812 23.9759C6.14075 22.7251 7.62115 21.7354 9.25808 21.0678C10.895 20.4003 12.6538 20.069 14.426 20.0944V20.0937Z" fill="#5D25BF"/>
</g>
<defs>
<linearGradient id="paint0_linear_420_1485" x1="43.7446" y1="49.6174" x2="43.7446" y2="8.90728" gradientUnits="userSpaceOnUse">
<stop stop-color="#F50057"/>
<stop offset="1" stop-color="#651FFF"/>
</linearGradient>
<linearGradient id="paint1_linear_420_1485" x1="33.5166" y1="1.02296" x2="33.5166" y2="53.6852" gradientUnits="userSpaceOnUse">
<stop stop-color="#F50057"/>
<stop offset="1" stop-color="#651FFF"/>
</linearGradient>
<clipPath id="clip0_420_1485">
<rect width="144" height="59" fill="white" transform="translate(0.957031 0.755371)"/>
</clipPath>
</defs>
</svg>
